<?xml version="1.0" standalone="no"?>
 <!DOCTYPE svg PUBLIC "-//W3C//DTD SVG 1.1//EN" 
 "http://www.w3.org/Graphics/SVG/1.1/DTD/svg11.dtd"> 
<svg xmlns="http://www.w3.org/2000/svg" version="1.1" 
    width="29.7002cm" height="21.0007cm" viewBox="0 0 116930 82680 ">
<title>SVG Picture created as autoOff09.svg date 2021/03/21 23:20:55 </title>
  <desc>Picture generated by Eeschema-SVG </desc>
<g style="fill:#000000; fill-opacity:1;stroke:#000000; stroke-opacity:1;
stroke-linecap:round; stroke-linejoin:round; "
 transform="translate(0 0) scale(1 1)">
</g>
<g style="fill:#000000; fill-opacity:0.0; 
stroke:#000000; stroke-width:-10; stroke-opacity:1; 
stroke-linecap:round; stroke-linejoin:round;">
</g>
<g style="fill:#000000; fill-opacity:0.0; 
stroke:#000000; stroke-width:100; stroke-opacity:1; 
stroke-linecap:round; stroke-linejoin:round;">
</g>
<g style="fill:#000000; fill-opacity:0.0; 
stroke:#000000; stroke-width:60; stroke-opacity:1; 
stroke-linecap:round; stroke-linejoin:round;">
<rect x="69690" y="65360" width="42520" height="12600" rx="0" />
</g>
<g style="fill:#000000; fill-opacity:0.0; 
stroke:#000000; stroke-width:100; stroke-opacity:1; 
stroke-linecap:round; stroke-linejoin:round;">
</g>
<g style="fill:#000000; fill-opacity:0.0; 
stroke:#000000; stroke-width:60; stroke-opacity:1; 
stroke-linecap:round; stroke-linejoin:round;">
<rect x="3940" y="3940" width="109050" height="74800" rx="0" />
</g>
<g style="fill:#000000; fill-opacity:0.0; 
stroke:#000000; stroke-width:100; stroke-opacity:1; 
stroke-linecap:round; stroke-linejoin:round;">
</g>
<g style="fill:#000000; fill-opacity:0.0; 
stroke:#000000; stroke-width:60; stroke-opacity:1; 
stroke-linecap:round; stroke-linejoin:round;">
<rect x="4720" y="4720" width="107490" height="73240" rx="0" />
</g>
<g style="fill:#000000; fill-opacity:0.0; 
stroke:#000000; stroke-width:100; stroke-opacity:1; 
stroke-linecap:round; stroke-linejoin:round;">
</g>
<g style="fill:#000000; fill-opacity:0.0; 
stroke:#000000; stroke-width:60; stroke-opacity:1; 
stroke-linecap:round; stroke-linejoin:round;">
<path d="M23620 4720
L23620 3940
" />
</g>
<g style="fill:#000000; fill-opacity:0.0; 
stroke:#000000; stroke-width:100; stroke-opacity:1; 
stroke-linecap:round; stroke-linejoin:round;">
</g>
<g style="fill:#000000; fill-opacity:0.0; 
stroke:#000000; stroke-width:60; stroke-opacity:1; 
stroke-linecap:round; stroke-linejoin:round;">
<path d="M43310 4720
L43310 3940
" />
</g>
<g style="fill:#000000; fill-opacity:0.0; 
stroke:#000000; stroke-width:100; stroke-opacity:1; 
stroke-linecap:round; stroke-linejoin:round;">
</g>
<g style="fill:#000000; fill-opacity:0.0; 
stroke:#000000; stroke-width:60; stroke-opacity:1; 
stroke-linecap:round; stroke-linejoin:round;">
<path d="M62990 4720
L62990 3940
" />
</g>
<g style="fill:#000000; fill-opacity:0.0; 
stroke:#000000; stroke-width:100; stroke-opacity:1; 
stroke-linecap:round; stroke-linejoin:round;">
</g>
<g style="fill:#000000; fill-opacity:0.0; 
stroke:#000000; stroke-width:60; stroke-opacity:1; 
stroke-linecap:round; stroke-linejoin:round;">
<path d="M82680 4720
L82680 3940
" />
</g>
<g style="fill:#000000; fill-opacity:0.0; 
stroke:#000000; stroke-width:100; stroke-opacity:1; 
stroke-linecap:round; stroke-linejoin:round;">
</g>
<g style="fill:#000000; fill-opacity:0.0; 
stroke:#000000; stroke-width:60; stroke-opacity:1; 
stroke-linecap:round; stroke-linejoin:round;">
<path d="M102360 4720
L102360 3940
" />
</g>
<g style="fill:#000000; fill-opacity:0.0; 
stroke:#000000; stroke-width:100; stroke-opacity:1; 
stroke-linecap:round; stroke-linejoin:round;">
</g>
<g style="fill:#000000; fill-opacity:0.0; 
stroke:#000000; stroke-width:60; stroke-opacity:1; 
stroke-linecap:round; stroke-linejoin:round;">
<text x="13780" y="4580"
textLength="500" font-size="680" lengthAdjust="spacingAndGlyphs"
text-anchor="start" opacity="0">1</text>
<path d="M14190 4560
L13900 4560
" />
<path d="M14050 4560
L14050 4050
L14000 4120
L13950 4170
L13900 4190
" />
</g>
<g style="fill:#000000; fill-opacity:0.0; 
stroke:#000000; stroke-width:100; stroke-opacity:1; 
stroke-linecap:round; stroke-linejoin:round;">
</g>
<g style="fill:#000000; fill-opacity:0.0; 
stroke:#000000; stroke-width:60; stroke-opacity:1; 
stroke-linecap:round; stroke-linejoin:round;">
<text x="33460" y="4580"
textLength="550" font-size="680" lengthAdjust="spacingAndGlyphs"
text-anchor="start" opacity="0">2</text>
<path d="M33580 4090
L33610 4070
L33660 4050
L33780 4050
L33830 4070
L33850 4090
L33870 4140
L33870 4190
L33850 4260
L33560 4560
L33870 4560
" />
</g>
<g style="fill:#000000; fill-opacity:0.0; 
stroke:#000000; stroke-width:100; stroke-opacity:1; 
stroke-linecap:round; stroke-linejoin:round;">
</g>
<g style="fill:#000000; fill-opacity:0.0; 
stroke:#000000; stroke-width:60; stroke-opacity:1; 
stroke-linecap:round; stroke-linejoin:round;">
<text x="53150" y="4580"
textLength="550" font-size="680" lengthAdjust="spacingAndGlyphs"
text-anchor="start" opacity="0">3</text>
<path d="M53250 4050
L53560 4050
L53390 4240
L53470 4240
L53520 4260
L53540 4290
L53560 4340
L53560 4460
L53540 4510
L53520 4530
L53470 4560
L53320 4560
L53270 4530
L53250 4510
" />
</g>
<g style="fill:#000000; fill-opacity:0.0; 
stroke:#000000; stroke-width:100; stroke-opacity:1; 
stroke-linecap:round; stroke-linejoin:round;">
</g>
<g style="fill:#000000; fill-opacity:0.0; 
stroke:#000000; stroke-width:60; stroke-opacity:1; 
stroke-linecap:round; stroke-linejoin:round;">
<text x="72830" y="4580"
textLength="550" font-size="680" lengthAdjust="spacingAndGlyphs"
text-anchor="start" opacity="0">4</text>
<path d="M73200 4220
L73200 4560
" />
<path d="M73070 4020
L72950 4390
L73270 4390
" />
</g>
<g style="fill:#000000; fill-opacity:0.0; 
stroke:#000000; stroke-width:100; stroke-opacity:1; 
stroke-linecap:round; stroke-linejoin:round;">
</g>
<g style="fill:#000000; fill-opacity:0.0; 
stroke:#000000; stroke-width:60; stroke-opacity:1; 
stroke-linecap:round; stroke-linejoin:round;">
<text x="92520" y="4580"
textLength="550" font-size="680" lengthAdjust="spacingAndGlyphs"
text-anchor="start" opacity="0">5</text>
<path d="M92910 4050
L92670 4050
L92640 4290
L92670 4260
L92720 4240
L92840 4240
L92890 4260
L92910 4290
L92930 4340
L92930 4460
L92910 4510
L92890 4530
L92840 4560
L92720 4560
L92670 4530
L92640 4510
" />
</g>
<g style="fill:#000000; fill-opacity:0.0; 
stroke:#000000; stroke-width:100; stroke-opacity:1; 
stroke-linecap:round; stroke-linejoin:round;">
</g>
<g style="fill:#000000; fill-opacity:0.0; 
stroke:#000000; stroke-width:60; stroke-opacity:1; 
stroke-linecap:round; stroke-linejoin:round;">
<text x="112200" y="4580"
textLength="550" font-size="680" lengthAdjust="spacingAndGlyphs"
text-anchor="start" opacity="0">6</text>
<path d="M112570 4050
L112470 4050
L112420 4070
L112400 4090
L112350 4170
L112320 4260
L112320 4460
L112350 4510
L112370 4530
L112420 4560
L112520 4560
L112570 4530
L112590 4510
L112610 4460
L112610 4340
L112590 4290
L112570 4260
L112520 4240
L112420 4240
L112370 4260
L112350 4290
L112320 4340
" />
</g>
<g style="fill:#000000; fill-opacity:0.0; 
stroke:#000000; stroke-width:100; stroke-opacity:1; 
stroke-linecap:round; stroke-linejoin:round;">
</g>
<g style="fill:#000000; fill-opacity:0.0; 
stroke:#000000; stroke-width:60; stroke-opacity:1; 
stroke-linecap:round; stroke-linejoin:round;">
<path d="M23620 77960
L23620 78740
" />
</g>
<g style="fill:#000000; fill-opacity:0.0; 
stroke:#000000; stroke-width:100; stroke-opacity:1; 
stroke-linecap:round; stroke-linejoin:round;">
</g>
<g style="fill:#000000; fill-opacity:0.0; 
stroke:#000000; stroke-width:60; stroke-opacity:1; 
stroke-linecap:round; stroke-linejoin:round;">
<path d="M43310 77960
L43310 78740
" />
</g>
<g style="fill:#000000; fill-opacity:0.0; 
stroke:#000000; stroke-width:100; stroke-opacity:1; 
stroke-linecap:round; stroke-linejoin:round;">
</g>
<g style="fill:#000000; fill-opacity:0.0; 
stroke:#000000; stroke-width:60; stroke-opacity:1; 
stroke-linecap:round; stroke-linejoin:round;">
<path d="M62990 77960
L62990 78740
" />
</g>
<g style="fill:#000000; fill-opacity:0.0; 
stroke:#000000; stroke-width:100; stroke-opacity:1; 
stroke-linecap:round; stroke-linejoin:round;">
</g>
<g style="fill:#000000; fill-opacity:0.0; 
stroke:#000000; stroke-width:60; stroke-opacity:1; 
stroke-linecap:round; stroke-linejoin:round;">
<path d="M82680 77960
L82680 78740
" />
</g>
<g style="fill:#000000; fill-opacity:0.0; 
stroke:#000000; stroke-width:100; stroke-opacity:1; 
stroke-linecap:round; stroke-linejoin:round;">
</g>
<g style="fill:#000000; fill-opacity:0.0; 
stroke:#000000; stroke-width:60; stroke-opacity:1; 
stroke-linecap:round; stroke-linejoin:round;">
<path d="M102360 77960
L102360 78740
" />
</g>
<g style="fill:#000000; fill-opacity:0.0; 
stroke:#000000; stroke-width:100; stroke-opacity:1; 
stroke-linecap:round; stroke-linejoin:round;">
</g>
<g style="fill:#000000; fill-opacity:0.0; 
stroke:#000000; stroke-width:60; stroke-opacity:1; 
stroke-linecap:round; stroke-linejoin:round;">
<text x="13780" y="78600"
textLength="550" font-size="680" lengthAdjust="spacingAndGlyphs"
text-anchor="start" opacity="0">1</text>
<path d="M14190 78580
L13900 78580
" />
<path d="M14050 78580
L14050 78070
L14000 78140
L13950 78190
L13900 78210
" />
</g>
<g style="fill:#000000; fill-opacity:0.0; 
stroke:#000000; stroke-width:100; stroke-opacity:1; 
stroke-linecap:round; stroke-linejoin:round;">
</g>
<g style="fill:#000000; fill-opacity:0.0; 
stroke:#000000; stroke-width:60; stroke-opacity:1; 
stroke-linecap:round; stroke-linejoin:round;">
<text x="33460" y="78600"
textLength="550" font-size="680" lengthAdjust="spacingAndGlyphs"
text-anchor="start" opacity="0">2</text>
<path d="M33580 78110
L33610 78090
L33660 78070
L33780 78070
L33830 78090
L33850 78110
L33870 78160
L33870 78210
L33850 78280
L33560 78580
L33870 78580
" />
</g>
<g style="fill:#000000; fill-opacity:0.0; 
stroke:#000000; stroke-width:100; stroke-opacity:1; 
stroke-linecap:round; stroke-linejoin:round;">
</g>
<g style="fill:#000000; fill-opacity:0.0; 
stroke:#000000; stroke-width:60; stroke-opacity:1; 
stroke-linecap:round; stroke-linejoin:round;">
<text x="53150" y="78600"
textLength="550" font-size="680" lengthAdjust="spacingAndGlyphs"
text-anchor="start" opacity="0">3</text>
<path d="M53250 78070
L53560 78070
L53390 78260
L53470 78260
L53520 78280
L53540 78310
L53560 78360
L53560 78480
L53540 78530
L53520 78550
L53470 78580
L53320 78580
L53270 78550
L53250 78530
" />
</g>
<g style="fill:#000000; fill-opacity:0.0; 
stroke:#000000; stroke-width:100; stroke-opacity:1; 
stroke-linecap:round; stroke-linejoin:round;">
</g>
<g style="fill:#000000; fill-opacity:0.0; 
stroke:#000000; stroke-width:60; stroke-opacity:1; 
stroke-linecap:round; stroke-linejoin:round;">
<text x="72830" y="78600"
textLength="550" font-size="680" lengthAdjust="spacingAndGlyphs"
text-anchor="start" opacity="0">4</text>
<path d="M73200 78240
L73200 78580
" />
<path d="M73070 78040
L72950 78410
L73270 78410
" />
</g>
<g style="fill:#000000; fill-opacity:0.0; 
stroke:#000000; stroke-width:100; stroke-opacity:1; 
stroke-linecap:round; stroke-linejoin:round;">
</g>
<g style="fill:#000000; fill-opacity:0.0; 
stroke:#000000; stroke-width:60; stroke-opacity:1; 
stroke-linecap:round; stroke-linejoin:round;">
<text x="92520" y="78600"
textLength="550" font-size="680" lengthAdjust="spacingAndGlyphs"
text-anchor="start" opacity="0">5</text>
<path d="M92910 78070
L92670 78070
L92640 78310
L92670 78280
L92720 78260
L92840 78260
L92890 78280
L92910 78310
L92930 78360
L92930 78480
L92910 78530
L92890 78550
L92840 78580
L92720 78580
L92670 78550
L92640 78530
" />
</g>
<g style="fill:#000000; fill-opacity:0.0; 
stroke:#000000; stroke-width:100; stroke-opacity:1; 
stroke-linecap:round; stroke-linejoin:round;">
</g>
<g style="fill:#000000; fill-opacity:0.0; 
stroke:#000000; stroke-width:60; stroke-opacity:1; 
stroke-linecap:round; stroke-linejoin:round;">
<text x="112200" y="78600"
textLength="550" font-size="680" lengthAdjust="spacingAndGlyphs"
text-anchor="start" opacity="0">6</text>
<path d="M112570 78070
L112470 78070
L112420 78090
L112400 78110
L112350 78190
L112320 78280
L112320 78480
L112350 78530
L112370 78550
L112420 78580
L112520 78580
L112570 78550
L112590 78530
L112610 78480
L112610 78360
L112590 78310
L112570 78280
L112520 78260
L112420 78260
L112370 78280
L112350 78310
L112320 78360
" />
</g>
<g style="fill:#000000; fill-opacity:0.0; 
stroke:#000000; stroke-width:100; stroke-opacity:1; 
stroke-linecap:round; stroke-linejoin:round;">
</g>
<g style="fill:#000000; fill-opacity:0.0; 
stroke:#000000; stroke-width:60; stroke-opacity:1; 
stroke-linecap:round; stroke-linejoin:round;">
<path d="M3940 23620
L4720 23620
" />
</g>
<g style="fill:#000000; fill-opacity:0.0; 
stroke:#000000; stroke-width:100; stroke-opacity:1; 
stroke-linecap:round; stroke-linejoin:round;">
</g>
<g style="fill:#000000; fill-opacity:0.0; 
stroke:#000000; stroke-width:60; stroke-opacity:1; 
stroke-linecap:round; stroke-linejoin:round;">
<path d="M3940 43310
L4720 43310
" />
</g>
<g style="fill:#000000; fill-opacity:0.0; 
stroke:#000000; stroke-width:100; stroke-opacity:1; 
stroke-linecap:round; stroke-linejoin:round;">
</g>
<g style="fill:#000000; fill-opacity:0.0; 
stroke:#000000; stroke-width:60; stroke-opacity:1; 
stroke-linecap:round; stroke-linejoin:round;">
<path d="M3940 62990
L4720 62990
" />
</g>
<g style="fill:#000000; fill-opacity:0.0; 
stroke:#000000; stroke-width:100; stroke-opacity:1; 
stroke-linecap:round; stroke-linejoin:round;">
</g>
<g style="fill:#000000; fill-opacity:0.0; 
stroke:#000000; stroke-width:60; stroke-opacity:1; 
stroke-linecap:round; stroke-linejoin:round;">
<text x="4330" y="14030"
textLength="500" font-size="680" lengthAdjust="spacingAndGlyphs"
text-anchor="middle" opacity="0">A</text>
<path d="M4200 13860
L4450 13860
" />
<path d="M4160 14010
L4330 13500
L4500 14010
" />
</g>
<g style="fill:#000000; fill-opacity:0.0; 
stroke:#000000; stroke-width:100; stroke-opacity:1; 
stroke-linecap:round; stroke-linejoin:round;">
</g>
<g style="fill:#000000; fill-opacity:0.0; 
stroke:#000000; stroke-width:60; stroke-opacity:1; 
stroke-linecap:round; stroke-linejoin:round;">
<text x="4330" y="33710"
textLength="570" font-size="680" lengthAdjust="spacingAndGlyphs"
text-anchor="middle" opacity="0">B</text>
<path d="M4360 33420
L4430 33440
L4460 33470
L4480 33520
L4480 33590
L4460 33640
L4430 33660
L4390 33690
L4190 33690
L4190 33180
L4360 33180
L4410 33200
L4430 33220
L4460 33270
L4460 33320
L4430 33370
L4410 33390
L4360 33420
L4190 33420
" />
</g>
<g style="fill:#000000; fill-opacity:0.0; 
stroke:#000000; stroke-width:100; stroke-opacity:1; 
stroke-linecap:round; stroke-linejoin:round;">
</g>
<g style="fill:#000000; fill-opacity:0.0; 
stroke:#000000; stroke-width:60; stroke-opacity:1; 
stroke-linecap:round; stroke-linejoin:round;">
<text x="4330" y="53400"
textLength="570" font-size="680" lengthAdjust="spacingAndGlyphs"
text-anchor="middle" opacity="0">C</text>
<path d="M4480 53330
L4460 53350
L4390 53380
L4340 53380
L4260 53350
L4220 53300
L4190 53250
L4170 53160
L4170 53080
L4190 52990
L4220 52940
L4260 52890
L4340 52870
L4390 52870
L4460 52890
L4480 52910
" />
</g>
<g style="fill:#000000; fill-opacity:0.0; 
stroke:#000000; stroke-width:100; stroke-opacity:1; 
stroke-linecap:round; stroke-linejoin:round;">
</g>
<g style="fill:#000000; fill-opacity:0.0; 
stroke:#000000; stroke-width:60; stroke-opacity:1; 
stroke-linecap:round; stroke-linejoin:round;">
<text x="4330" y="73080"
textLength="570" font-size="680" lengthAdjust="spacingAndGlyphs"
text-anchor="middle" opacity="0">D</text>
<path d="M4190 73060
L4190 72550
L4310 72550
L4390 72570
L4430 72620
L4460 72670
L4480 72760
L4480 72840
L4460 72930
L4430 72980
L4390 73030
L4310 73060
L4190 73060
" />
</g>
<g style="fill:#000000; fill-opacity:0.0; 
stroke:#000000; stroke-width:100; stroke-opacity:1; 
stroke-linecap:round; stroke-linejoin:round;">
</g>
<g style="fill:#000000; fill-opacity:0.0; 
stroke:#000000; stroke-width:60; stroke-opacity:1; 
stroke-linecap:round; stroke-linejoin:round;">
<path d="M112990 23620
L112210 23620
" />
</g>
<g style="fill:#000000; fill-opacity:0.0; 
stroke:#000000; stroke-width:100; stroke-opacity:1; 
stroke-linecap:round; stroke-linejoin:round;">
</g>
<g style="fill:#000000; fill-opacity:0.0; 
stroke:#000000; stroke-width:60; stroke-opacity:1; 
stroke-linecap:round; stroke-linejoin:round;">
<path d="M112990 43310
L112210 43310
" />
</g>
<g style="fill:#000000; fill-opacity:0.0; 
stroke:#000000; stroke-width:100; stroke-opacity:1; 
stroke-linecap:round; stroke-linejoin:round;">
</g>
<g style="fill:#000000; fill-opacity:0.0; 
stroke:#000000; stroke-width:60; stroke-opacity:1; 
stroke-linecap:round; stroke-linejoin:round;">
<path d="M112990 62990
L112210 62990
" />
</g>
<g style="fill:#000000; fill-opacity:0.0; 
stroke:#000000; stroke-width:100; stroke-opacity:1; 
stroke-linecap:round; stroke-linejoin:round;">
</g>
<g style="fill:#000000; fill-opacity:0.0; 
stroke:#000000; stroke-width:60; stroke-opacity:1; 
stroke-linecap:round; stroke-linejoin:round;">
<text x="112600" y="14030"
textLength="500" font-size="680" lengthAdjust="spacingAndGlyphs"
text-anchor="middle" opacity="0">A</text>
<path d="M112470 13860
L112720 13860
" />
<path d="M112430 14010
L112600 13500
L112770 14010
" />
</g>
<g style="fill:#000000; fill-opacity:0.0; 
stroke:#000000; stroke-width:100; stroke-opacity:1; 
stroke-linecap:round; stroke-linejoin:round;">
</g>
<g style="fill:#000000; fill-opacity:0.0; 
stroke:#000000; stroke-width:60; stroke-opacity:1; 
stroke-linecap:round; stroke-linejoin:round;">
<text x="112600" y="33710"
textLength="570" font-size="680" lengthAdjust="spacingAndGlyphs"
text-anchor="middle" opacity="0">B</text>
<path d="M112630 33420
L112700 33440
L112730 33470
L112750 33520
L112750 33590
L112730 33640
L112700 33660
L112660 33690
L112460 33690
L112460 33180
L112630 33180
L112680 33200
L112700 33220
L112730 33270
L112730 33320
L112700 33370
L112680 33390
L112630 33420
L112460 33420
" />
</g>
<g style="fill:#000000; fill-opacity:0.0; 
stroke:#000000; stroke-width:100; stroke-opacity:1; 
stroke-linecap:round; stroke-linejoin:round;">
</g>
<g style="fill:#000000; fill-opacity:0.0; 
stroke:#000000; stroke-width:60; stroke-opacity:1; 
stroke-linecap:round; stroke-linejoin:round;">
<text x="112600" y="53400"
textLength="570" font-size="680" lengthAdjust="spacingAndGlyphs"
text-anchor="middle" opacity="0">C</text>
<path d="M112750 53330
L112730 53350
L112660 53380
L112610 53380
L112530 53350
L112490 53300
L112460 53250
L112440 53160
L112440 53080
L112460 52990
L112490 52940
L112530 52890
L112610 52870
L112660 52870
L112730 52890
L112750 52910
" />
</g>
<g style="fill:#000000; fill-opacity:0.0; 
stroke:#000000; stroke-width:100; stroke-opacity:1; 
stroke-linecap:round; stroke-linejoin:round;">
</g>
<g style="fill:#000000; fill-opacity:0.0; 
stroke:#000000; stroke-width:60; stroke-opacity:1; 
stroke-linecap:round; stroke-linejoin:round;">
<text x="112600" y="73080"
textLength="570" font-size="680" lengthAdjust="spacingAndGlyphs"
text-anchor="middle" opacity="0">D</text>
<path d="M112460 73060
L112460 72550
L112580 72550
L112660 72570
L112700 72620
L112730 72670
L112750 72760
L112750 72840
L112730 72930
L112700 72980
L112660 73030
L112580 73060
L112460 73060
" />
</g>
<g style="fill:#000000; fill-opacity:0.0; 
stroke:#000000; stroke-width:100; stroke-opacity:1; 
stroke-linecap:round; stroke-linejoin:round;">
</g>
<g style="fill:#000000; fill-opacity:0.0; 
stroke:#000000; stroke-width:60; stroke-opacity:1; 
stroke-linecap:round; stroke-linejoin:round;">
<text x="78740" y="76320"
textLength="8710" font-size="780" lengthAdjust="spacingAndGlyphs"
text-anchor="start" opacity="0">Date: 2021-03-21</text>
<path d="M78910 76290
L78910 75700
L79050 75700
L79130 75730
L79190 75790
L79210 75840
L79240 75950
L79240 76040
L79210 76150
L79190 76210
L79130 76260
L79050 76290
L78910 76290
" />
<path d="M79750 76290
L79750 75980
L79720 75930
L79660 75900
L79550 75900
L79500 75930
" />
<path d="M79750 76260
L79690 76290
L79550 76290
L79500 76260
L79470 76210
L79470 76150
L79500 76100
L79550 76070
L79690 76070
L79750 76040
" />
<path d="M79950 75900
L80170 75900
" />
<path d="M80030 75700
L80030 76210
L80060 76260
L80110 76290
L80170 76290
" />
<path d="M80590 76260
L80540 76290
L80420 76290
L80370 76260
L80340 76210
L80340 75980
L80370 75930
L80420 75900
L80540 75900
L80590 75930
L80620 75980
L80620 76040
L80340 76100
" />
<path d="M80870 76240
L80900 76260
L80870 76290
L80840 76260
L80870 76240
L80870 76290
" />
<path d="M80870 75930
L80900 75950
L80870 75980
L80840 75950
L80870 75930
L80870 75980
" />
<path d="M81570 75760
L81600 75730
L81660 75700
L81800 75700
L81860 75730
L81880 75760
L81910 75810
L81910 75870
L81880 75950
L81550 76290
L81910 76290
" />
<path d="M82280 75700
L82330 75700
L82390 75730
L82420 75760
L82450 75810
L82470 75930
L82470 76070
L82450 76180
L82420 76240
L82390 76260
L82330 76290
L82280 76290
L82220 76260
L82190 76240
L82160 76180
L82140 76070
L82140 75930
L82160 75810
L82190 75760
L82220 75730
L82280 75700
" />
<path d="M82700 75760
L82730 75730
L82780 75700
L82920 75700
L82980 75730
L83010 75760
L83040 75810
L83040 75870
L83010 75950
L82670 76290
L83040 76290
" />
<path d="M83600 76290
L83260 76290
" />
<path d="M83430 76290
L83430 75700
L83370 75790
L83320 75840
L83260 75870
" />
<path d="M83850 76070
L84300 76070
" />
<path d="M84690 75700
L84750 75700
L84810 75730
L84830 75760
L84860 75810
L84890 75930
L84890 76070
L84860 76180
L84830 76240
L84810 76260
L84750 76290
L84690 76290
L84640 76260
L84610 76240
L84580 76180
L84550 76070
L84550 75930
L84580 75810
L84610 75760
L84640 75730
L84690 75700
" />
<path d="M85090 75700
L85450 75700
L85260 75930
L85340 75930
L85400 75950
L85420 75980
L85450 76040
L85450 76180
L85420 76240
L85400 76260
L85340 76290
L85170 76290
L85110 76260
L85090 76240
" />
<path d="M85700 76070
L86150 76070
" />
<path d="M86410 75760
L86440 75730
L86490 75700
L86630 75700
L86690 75730
L86720 75760
L86740 75810
L86740 75870
L86720 75950
L86380 76290
L86740 76290
" />
<path d="M87310 76290
L86970 76290
" />
<path d="M87140 76290
L87140 75700
L87080 75790
L87030 75840
L86970 75870
" />
</g>
<g style="fill:#000000; fill-opacity:0.0; 
stroke:#000000; stroke-width:100; stroke-opacity:1; 
stroke-linecap:round; stroke-linejoin:round;">
</g>
<g style="fill:#000000; fill-opacity:0.0; 
stroke:#000000; stroke-width:60; stroke-opacity:1; 
stroke-linecap:round; stroke-linejoin:round;">
<path d="M69690 76580
L112210 76580
" />
</g>
<g style="fill:#000000; fill-opacity:0.0; 
stroke:#000000; stroke-width:100; stroke-opacity:1; 
stroke-linecap:round; stroke-linejoin:round;">
</g>
<g style="fill:#000000; fill-opacity:0.0; 
stroke:#000000; stroke-width:60; stroke-opacity:1; 
stroke-linecap:round; stroke-linejoin:round;">
<text x="70080" y="77420"
textLength="18660" font-size="780" lengthAdjust="spacingAndGlyphs"
text-anchor="start" opacity="0">KiCad E.D.A.  kicad 5.1.5+dfsg1-2build2</text>
<path d="M70250 77390
L70250 76800
" />
<path d="M70580 77390
L70330 77050
" />
<path d="M70580 76800
L70250 77140
" />
<path d="M70840 77390
L70840 77000
" />
<path d="M70840 76800
L70810 76830
L70840 76860
L70860 76830
L70840 76800
L70840 76860
" />
<path d="M71450 77340
L71430 77360
L71340 77390
L71290 77390
L71200 77360
L71140 77310
L71120 77250
L71090 77140
L71090 77050
L71120 76940
L71140 76890
L71200 76830
L71290 76800
L71340 76800
L71430 76830
L71450 76860
" />
<path d="M71960 77390
L71960 77080
L71930 77030
L71880 77000
L71760 77000
L71710 77030
" />
<path d="M71960 77360
L71900 77390
L71760 77390
L71710 77360
L71680 77310
L71680 77250
L71710 77200
L71760 77170
L71900 77170
L71960 77140
" />
<path d="M72490 77390
L72490 76800
" />
<path d="M72490 77360
L72440 77390
L72320 77390
L72270 77360
L72240 77340
L72210 77280
L72210 77110
L72240 77050
L72270 77030
L72320 77000
L72440 77000
L72490 77030
" />
<path d="M73220 77080
L73420 77080
" />
<path d="M73500 77390
L73220 77390
L73220 76800
L73500 76800
" />
<path d="M73760 77340
L73790 77360
L73760 77390
L73730 77360
L73760 77340
L73760 77390
" />
<path d="M74040 77390
L74040 76800
L74180 76800
L74260 76830
L74320 76890
L74350 76940
L74380 77050
L74380 77140
L74350 77250
L74320 77310
L74260 77360
L74180 77390
L74040 77390
" />
<path d="M74630 77340
L74660 77360
L74630 77390
L74600 77360
L74630 77340
L74630 77390
" />
<path d="M74880 77220
L75160 77220
" />
<path d="M74830 77390
L75020 76800
L75220 77390
" />
<path d="M75420 77340
L75440 77360
L75420 77390
L75390 77360
L75420 77340
L75420 77390
" />
<path d="M76600 77390
L76600 76800
" />
<path d="M76650 77170
L76820 77390
" />
<path d="M76820 77000
L76600 77220
" />
<path d="M77070 77390
L77070 77000
" />
<path d="M77070 76800
L77040 76830
L77070 76860
L77100 76830
L77070 76800
L77070 76860
" />
<path d="M77610 77360
L77550 77390
L77440 77390
L77380 77360
L77350 77340
L77330 77280
L77330 77110
L77350 77050
L77380 77030
L77440 77000
L77550 77000
L77610 77030
" />
<path d="M78110 77390
L78110 77080
L78080 77030
L78030 77000
L77920 77000
L77860 77030
" />
<path d="M78110 77360
L78060 77390
L77920 77390
L77860 77360
L77830 77310
L77830 77250
L77860 77200
L77920 77170
L78060 77170
L78110 77140
" />
<path d="M78650 77390
L78650 76800
" />
<path d="M78650 77360
L78590 77390
L78480 77390
L78420 77360
L78390 77340
L78370 77280
L78370 77110
L78390 77050
L78420 77030
L78480 77000
L78590 77000
L78650 77030
" />
<path d="M79660 76800
L79380 76800
L79350 77080
L79380 77050
L79430 77030
L79570 77030
L79630 77050
L79660 77080
L79690 77140
L79690 77280
L79660 77340
L79630 77360
L79570 77390
L79430 77390
L79380 77360
L79350 77340
" />
<path d="M79940 77340
L79970 77360
L79940 77390
L79910 77360
L79940 77340
L79940 77390
" />
<path d="M80530 77390
L80190 77390
" />
<path d="M80360 77390
L80360 76800
L80300 76890
L80250 76940
L80190 76970
" />
<path d="M80780 77340
L80810 77360
L80780 77390
L80750 77360
L80780 77340
L80780 77390
" />
<path d="M81340 76800
L81060 76800
L81030 77080
L81060 77050
L81120 77030
L81260 77030
L81320 77050
L81340 77080
L81370 77140
L81370 77280
L81340 77340
L81320 77360
L81260 77390
L81120 77390
L81060 77360
L81030 77340
" />
<path d="M81620 77170
L82070 77170
" />
<path d="M81850 77390
L81850 76940
" />
<path d="M82610 77390
L82610 76800
" />
<path d="M82610 77360
L82550 77390
L82440 77390
L82380 77360
L82350 77340
L82330 77280
L82330 77110
L82350 77050
L82380 77030
L82440 77000
L82550 77000
L82610 77030
" />
<path d="M82800 77000
L83030 77000
" />
<path d="M82890 77390
L82890 76890
L82920 76830
L82970 76800
L83030 76800
" />
<path d="M83200 77360
L83250 77390
L83370 77390
L83420 77360
L83450 77310
L83450 77280
L83420 77220
L83370 77200
L83280 77200
L83230 77170
L83200 77110
L83200 77080
L83230 77030
L83280 77000
L83370 77000
L83420 77030
" />
<path d="M83960 77000
L83960 77480
L83930 77530
L83900 77560
L83840 77590
L83760 77590
L83700 77560
" />
<path d="M83960 77360
L83900 77390
L83790 77390
L83730 77360
L83700 77340
L83680 77280
L83680 77110
L83700 77050
L83730 77030
L83790 77000
L83900 77000
L83960 77030
" />
<path d="M84550 77390
L84210 77390
" />
<path d="M84380 77390
L84380 76800
L84320 76890
L84270 76940
L84210 76970
" />
<path d="M84800 77170
L85250 77170
" />
<path d="M85500 76860
L85530 76830
L85590 76800
L85730 76800
L85780 76830
L85810 76860
L85840 76910
L85840 76970
L85810 77050
L85470 77390
L85840 77390
" />
<path d="M86090 77390
L86090 76800
" />
<path d="M86090 77030
L86150 77000
L86260 77000
L86320 77030
L86340 77050
L86370 77110
L86370 77280
L86340 77340
L86320 77360
L86260 77390
L86150 77390
L86090 77360
" />
<path d="M86880 77000
L86880 77390
" />
<path d="M86630 77000
L86630 77310
L86650 77360
L86710 77390
L86790 77390
L86850 77360
L86880 77340
" />
<path d="M87160 77390
L87160 77000
" />
<path d="M87160 76800
L87130 76830
L87160 76860
L87190 76830
L87160 76800
L87160 76860
" />
<path d="M87520 77390
L87470 77360
L87440 77310
L87440 76800
" />
<path d="M88000 77390
L88000 76800
" />
<path d="M88000 77360
L87950 77390
L87830 77390
L87780 77360
L87750 77340
L87720 77280
L87720 77110
L87750 77050
L87780 77030
L87830 77000
L87950 77000
L88000 77030
" />
<path d="M88250 76860
L88280 76830
L88340 76800
L88480 76800
L88540 76830
L88560 76860
L88590 76910
L88590 76970
L88560 77050
L88230 77390
L88590 77390
" />
</g>
<g style="fill:#000000; fill-opacity:0.0; 
stroke:#000000; stroke-width:100; stroke-opacity:1; 
stroke-linecap:round; stroke-linejoin:round;">
</g>
<g style="fill:#000000; fill-opacity:0.0; 
stroke:#000000; stroke-width:60; stroke-opacity:1; 
stroke-linecap:round; stroke-linejoin:round;">
<path d="M69690 75400
L112210 75400
" />
</g>
<g style="fill:#000000; fill-opacity:0.0; 
stroke:#000000; stroke-width:100; stroke-opacity:1; 
stroke-linecap:round; stroke-linejoin:round;">
</g>
<g style="fill:#000000; fill-opacity:0.0; 
stroke:#000000; stroke-width:120; stroke-opacity:1; 
stroke-linecap:round; stroke-linejoin:round;">
<text x="103540" y="76320"
textLength="2340" font-size="780" lengthAdjust="spacingAndGlyphs"
text-anchor="start" opacity="0">Rev: </text>
<path d="M104090 76290
L103890 76010
" />
<path d="M103750 76290
L103750 75700
L103980 75700
L104030 75730
L104060 75760
L104090 75810
L104090 75900
L104060 75950
L104030 75980
L103980 76010
L103750 76010
" />
<path d="M104570 76260
L104510 76290
L104400 76290
L104340 76260
L104320 76210
L104320 75980
L104340 75930
L104400 75900
L104510 75900
L104570 75930
L104600 75980
L104600 76040
L104320 76100
" />
<path d="M104790 75900
L104930 76290
L105070 75900
" />
<path d="M105300 76240
L105330 76260
L105300 76290
L105270 76260
L105300 76240
L105300 76290
" />
<path d="M105300 75930
L105330 75950
L105300 75980
L105270 75950
L105300 75930
L105300 75980
" />
</g>
<g style="fill:#000000; fill-opacity:0.0; 
stroke:#000000; stroke-width:100; stroke-opacity:1; 
stroke-linecap:round; stroke-linejoin:round;">
</g>
<g style="fill:#000000; fill-opacity:0.0; 
stroke:#000000; stroke-width:60; stroke-opacity:1; 
stroke-linecap:round; stroke-linejoin:round;">
<text x="70080" y="76320"
textLength="3780" font-size="780" lengthAdjust="spacingAndGlyphs"
text-anchor="start" opacity="0">Size: A4</text>
<path d="M70220 76260
L70300 76290
L70440 76290
L70500 76260
L70530 76240
L70550 76180
L70550 76120
L70530 76070
L70500 76040
L70440 76010
L70330 75980
L70270 75950
L70250 75930
L70220 75870
L70220 75810
L70250 75760
L70270 75730
L70330 75700
L70470 75700
L70550 75730
" />
<path d="M70810 76290
L70810 75900
" />
<path d="M70810 75700
L70780 75730
L70810 75760
L70840 75730
L70810 75700
L70810 75760
" />
<path d="M71030 75900
L71340 75900
L71030 76290
L71340 76290
" />
<path d="M71790 76260
L71730 76290
L71620 76290
L71570 76260
L71540 76210
L71540 75980
L71570 75930
L71620 75900
L71730 75900
L71790 75930
L71820 75980
L71820 76040
L71540 76100
" />
<path d="M72070 76240
L72100 76260
L72070 76290
L72040 76260
L72070 76240
L72070 76290
" />
<path d="M72070 75930
L72100 75950
L72070 75980
L72040 75950
L72070 75930
L72070 75980
" />
<path d="M72770 76120
L73060 76120
" />
<path d="M72720 76290
L72910 75700
L73110 76290
" />
<path d="M73560 75900
L73560 76290
" />
<path d="M73420 75670
L73280 76100
L73650 76100
" />
</g>
<g style="fill:#000000; fill-opacity:0.0; 
stroke:#000000; stroke-width:100; stroke-opacity:1; 
stroke-linecap:round; stroke-linejoin:round;">
</g>
<g style="fill:#000000; fill-opacity:0.0; 
stroke:#000000; stroke-width:60; stroke-opacity:1; 
stroke-linecap:round; stroke-linejoin:round;">
<text x="103540" y="77420"
textLength="3350" font-size="780" lengthAdjust="spacingAndGlyphs"
text-anchor="start" opacity="0">Id: 1/1</text>
<path d="M103710 77390
L103710 76800
" />
<path d="M104240 77390
L104240 76800
" />
<path d="M104240 77360
L104180 77390
L104070 77390
L104010 77360
L103990 77340
L103960 77280
L103960 77110
L103990 77050
L104010 77030
L104070 77000
L104180 77000
L104240 77030
" />
<path d="M104520 77340
L104550 77360
L104520 77390
L104490 77360
L104520 77340
L104520 77390
" />
<path d="M104520 77030
L104550 77050
L104520 77080
L104490 77050
L104520 77030
L104520 77080
" />
<path d="M105560 77390
L105220 77390
" />
<path d="M105390 77390
L105390 76800
L105340 76890
L105280 76940
L105220 76970
" />
<path d="M106230 76770
L105730 77530
" />
<path d="M106740 77390
L106400 77390
" />
<path d="M106570 77390
L106570 76800
L106520 76890
L106460 76940
L106400 76970
" />
</g>
<g style="fill:#000000; fill-opacity:0.0; 
stroke:#000000; stroke-width:100; stroke-opacity:1; 
stroke-linecap:round; stroke-linejoin:round;">
</g>
<g style="fill:#000000; fill-opacity:0.0; 
stroke:#000000; stroke-width:60; stroke-opacity:1; 
stroke-linecap:round; stroke-linejoin:round;">
<path d="M69690 73820
L112210 73820
" />
</g>
<g style="fill:#000000; fill-opacity:0.0; 
stroke:#000000; stroke-width:100; stroke-opacity:1; 
stroke-linecap:round; stroke-linejoin:round;">
</g>
<g style="fill:#000000; fill-opacity:0.0; 
stroke:#000000; stroke-width:160; stroke-opacity:1; 
stroke-linecap:round; stroke-linejoin:round;">
<text x="70080" y="74920"
textLength="24860" font-size="1050" lengthAdjust="spacingAndGlyphs"
text-anchor="start" opacity="0">Title: 0.9-9V DC-DC with sleep function</text>
<path d="M70360 74090
L70810 74090
" />
<path d="M70480 74880
L70580 74090
" />
<path d="M70970 74880
L71040 74360
" />
<path d="M71070 74090
L71030 74130
L71060 74170
L71110 74130
L71070 74090
L71060 74170
" />
<path d="M71300 74360
L71600 74360
" />
<path d="M71450 74090
L71360 74770
L71390 74840
L71460 74880
L71540 74880
" />
<path d="M71910 74880
L71840 74840
L71820 74770
L71900 74090
" />
<path d="M72520 74840
L72440 74880
L72290 74880
L72220 74840
L72190 74770
L72230 74470
L72280 74390
L72360 74360
L72510 74360
L72580 74390
L72610 74470
L72600 74540
L72210 74620
" />
<path d="M72900 74810
L72930 74840
L72890 74880
L72860 74840
L72900 74810
L72890 74880
" />
<path d="M72950 74390
L72990 74430
L72940 74470
L72910 74430
L72950 74390
L72940 74470
" />
<path d="M74120 74090
L74190 74090
L74270 74130
L74300 74170
L74330 74240
L74350 74390
L74320 74580
L74270 74730
L74220 74810
L74180 74840
L74100 74880
L74020 74880
L73950 74840
L73920 74810
L73890 74730
L73870 74580
L73890 74390
L73950 74240
L74000 74170
L74040 74130
L74120 74090
" />
<path d="M74630 74810
L74670 74840
L74620 74880
L74590 74840
L74630 74810
L74620 74880
" />
<path d="M75040 74880
L75190 74880
L75270 74840
L75310 74810
L75400 74690
L75460 74540
L75490 74240
L75460 74170
L75430 74130
L75360 74090
L75210 74090
L75130 74130
L75090 74170
L75040 74240
L75020 74430
L75050 74510
L75080 74540
L75150 74580
L75300 74580
L75380 74540
L75420 74510
L75470 74430
" />
<path d="M75790 74580
L76390 74580
" />
<path d="M76770 74880
L76920 74880
L77000 74840
L77040 74810
L77130 74690
L77190 74540
L77220 74240
L77190 74170
L77160 74130
L77090 74090
L76940 74090
L76860 74130
L76820 74170
L76770 74240
L76750 74430
L76780 74510
L76810 74540
L76880 74580
L77030 74580
L77110 74540
L77150 74510
L77200 74430
" />
<path d="M77470 74090
L77630 74880
L77990 74090
" />
<path d="M78760 74880
L78860 74090
L79050 74090
L79160 74130
L79220 74210
L79250 74280
L79270 74430
L79250 74540
L79200 74690
L79150 74770
L79070 74840
L78950 74880
L78760 74880
" />
<path d="M80010 74810
L79970 74840
L79850 74880
L79780 74880
L79670 74840
L79600 74770
L79570 74690
L79560 74540
L79570 74430
L79630 74280
L79670 74210
L79760 74130
L79880 74090
L79950 74090
L80060 74130
L80090 74170
" />
<path d="M80380 74580
L80980 74580
" />
<path d="M81320 74880
L81420 74090
L81610 74090
L81710 74130
L81780 74210
L81810 74280
L81830 74430
L81810 74540
L81760 74690
L81710 74770
L81620 74840
L81510 74880
L81320 74880
" />
<path d="M82570 74810
L82530 74840
L82410 74880
L82330 74880
L82230 74840
L82160 74770
L82130 74690
L82110 74540
L82130 74430
L82180 74280
L82230 74210
L82320 74130
L82430 74090
L82510 74090
L82620 74130
L82650 74170
" />
<path d="M83490 74360
L83580 74880
L83770 74510
L83880 74880
L84090 74360
" />
<path d="M84330 74880
L84390 74360
" />
<path d="M84430 74090
L84380 74130
L84420 74170
L84460 74130
L84430 74090
L84420 74170
" />
<path d="M84660 74360
L84960 74360
" />
<path d="M84800 74090
L84720 74770
L84750 74840
L84820 74880
L84890 74880
" />
<path d="M85160 74880
L85250 74090
" />
<path d="M85490 74880
L85550 74470
L85520 74390
L85450 74360
L85330 74360
L85250 74390
L85210 74430
" />
<path d="M86440 74840
L86510 74880
L86660 74880
L86740 74840
L86790 74770
L86790 74730
L86760 74660
L86690 74620
L86580 74620
L86510 74580
L86480 74510
L86490 74470
L86530 74390
L86610 74360
L86730 74360
L86800 74390
" />
<path d="M87230 74880
L87150 74840
L87130 74770
L87210 74090
" />
<path d="M87830 74840
L87750 74880
L87600 74880
L87530 74840
L87500 74770
L87540 74470
L87590 74390
L87670 74360
L87820 74360
L87890 74390
L87920 74470
L87910 74540
L87520 74620
" />
<path d="M88510 74840
L88430 74880
L88280 74880
L88210 74840
L88180 74770
L88220 74470
L88260 74390
L88340 74360
L88490 74360
L88570 74390
L88590 74470
L88580 74540
L88200 74620
" />
<path d="M88950 74360
L88850 75150
" />
<path d="M88940 74390
L89020 74360
L89170 74360
L89240 74390
L89280 74430
L89300 74510
L89280 74730
L89230 74810
L89190 74840
L89110 74880
L88960 74880
L88890 74840
" />
<path d="M90150 74360
L90450 74360
" />
<path d="M90200 74880
L90280 74210
L90330 74130
L90410 74090
L90480 74090
" />
<path d="M91050 74360
L90990 74880
" />
<path d="M90710 74360
L90660 74770
L90690 74840
L90760 74880
L90870 74880
L90950 74840
L91000 74810
" />
<path d="M91430 74360
L91360 74880
" />
<path d="M91420 74430
L91460 74390
L91540 74360
L91650 74360
L91730 74390
L91750 74470
L91700 74880
" />
<path d="M92420 74840
L92340 74880
L92190 74880
L92120 74840
L92090 74810
L92060 74730
L92090 74510
L92130 74430
L92180 74390
L92260 74360
L92410 74360
L92480 74390
" />
<path d="M92710 74360
L93010 74360
" />
<path d="M92850 74090
L92770 74770
L92800 74840
L92870 74880
L92940 74880
" />
<path d="M93210 74880
L93270 74360
" />
<path d="M93310 74090
L93260 74130
L93300 74170
L93340 74130
L93310 74090
L93300 74170
" />
<path d="M93700 74880
L93630 74840
L93590 74810
L93560 74730
L93590 74510
L93640 74430
L93680 74390
L93760 74360
L93870 74360
L93940 74390
L93980 74430
L94010 74510
L93980 74730
L93930 74810
L93890 74840
L93810 74880
L93700 74880
" />
<path d="M94360 74360
L94300 74880
" />
<path d="M94350 74430
L94400 74390
L94480 74360
L94590 74360
L94660 74390
L94690 74470
L94640 74880
" />
</g>
<g style="fill:#000000; fill-opacity:0.0; 
stroke:#000000; stroke-width:100; stroke-opacity:1; 
stroke-linecap:round; stroke-linejoin:round;">
</g>
<g style="fill:#000000; fill-opacity:0.0; 
stroke:#000000; stroke-width:60; stroke-opacity:1; 
stroke-linecap:round; stroke-linejoin:round;">
<text x="70080" y="73400"
textLength="8690" font-size="780" lengthAdjust="spacingAndGlyphs"
text-anchor="start" opacity="0">File: autoOff09.sch</text>
<path d="M70440 73060
L70250 73060
" />
<path d="M70250 73370
L70250 72780
L70530 72780
" />
<path d="M70750 73370
L70750 72980
" />
<path d="M70750 72780
L70720 72810
L70750 72840
L70780 72810
L70750 72780
L70750 72840
" />
<path d="M71120 73370
L71060 73340
L71030 73290
L71030 72780
" />
<path d="M71570 73340
L71510 73370
L71400 73370
L71340 73340
L71310 73290
L71310 73060
L71340 73010
L71400 72980
L71510 72980
L71570 73010
L71590 73060
L71590 73120
L71310 73180
" />
<path d="M71850 73320
L71880 73340
L71850 73370
L71820 73340
L71850 73320
L71850 73370
" />
<path d="M71850 73010
L71880 73030
L71850 73060
L71820 73030
L71850 73010
L71850 73060
" />
<path d="M72830 73370
L72830 73060
L72800 73010
L72750 72980
L72630 72980
L72580 73010
" />
<path d="M72830 73340
L72770 73370
L72630 73370
L72580 73340
L72550 73290
L72550 73230
L72580 73180
L72630 73150
L72770 73150
L72830 73120
" />
<path d="M73360 72980
L73360 73370
" />
<path d="M73110 72980
L73110 73290
L73140 73340
L73200 73370
L73280 73370
L73340 73340
L73360 73320
" />
<path d="M73560 72980
L73790 72980
" />
<path d="M73650 72780
L73650 73290
L73670 73340
L73730 73370
L73790 73370
" />
<path d="M74070 73370
L74010 73340
L73980 73320
L73950 73260
L73950 73090
L73980 73030
L74010 73010
L74070 72980
L74150 72980
L74210 73010
L74240 73030
L74260 73090
L74260 73260
L74240 73320
L74210 73340
L74150 73370
L74070 73370
" />
<path d="M74630 72780
L74740 72780
L74800 72810
L74850 72870
L74880 72980
L74880 73180
L74850 73290
L74800 73340
L74740 73370
L74630 73370
L74570 73340
L74520 73290
L74490 73180
L74490 72980
L74520 72870
L74570 72810
L74630 72780
" />
<path d="M75050 72980
L75270 72980
" />
<path d="M75130 73370
L75130 72870
L75160 72810
L75220 72780
L75270 72780
" />
<path d="M75390 72980
L75610 72980
" />
<path d="M75470 73370
L75470 72870
L75500 72810
L75560 72780
L75610 72780
" />
<path d="M75920 72780
L75980 72780
L76030 72810
L76060 72840
L76090 72890
L76120 73010
L76120 73150
L76090 73260
L76060 73320
L76030 73340
L75980 73370
L75920 73370
L75860 73340
L75840 73320
L75810 73260
L75780 73150
L75780 73010
L75810 72890
L75840 72840
L75860 72810
L75920 72780
" />
<path d="M76400 73370
L76510 73370
L76570 73340
L76600 73320
L76650 73230
L76680 73120
L76680 72890
L76650 72840
L76620 72810
L76570 72780
L76450 72780
L76400 72810
L76370 72840
L76340 72890
L76340 73030
L76370 73090
L76400 73120
L76450 73150
L76570 73150
L76620 73120
L76650 73090
L76680 73030
" />
<path d="M76930 73320
L76960 73340
L76930 73370
L76900 73340
L76930 73320
L76930 73370
" />
<path d="M77190 73340
L77240 73370
L77350 73370
L77410 73340
L77440 73290
L77440 73260
L77410 73200
L77350 73180
L77270 73180
L77210 73150
L77190 73090
L77190 73060
L77210 73010
L77270 72980
L77350 72980
L77410 73010
" />
<path d="M77940 73340
L77890 73370
L77780 73370
L77720 73340
L77690 73320
L77660 73260
L77660 73090
L77690 73030
L77720 73010
L77780 72980
L77890 72980
L77940 73010
" />
<path d="M78200 73370
L78200 72780
" />
<path d="M78450 73370
L78450 73060
L78420 73010
L78370 72980
L78280 72980
L78220 73010
L78200 73030
" />
</g>
<g style="fill:#000000; fill-opacity:0.0; 
stroke:#000000; stroke-width:100; stroke-opacity:1; 
stroke-linecap:round; stroke-linejoin:round;">
</g>
<g style="fill:#000000; fill-opacity:0.0; 
stroke:#000000; stroke-width:60; stroke-opacity:1; 
stroke-linecap:round; stroke-linejoin:round;">
<path d="M69690 71460
L112210 71460
" />
</g>
<g style="fill:#000000; fill-opacity:0.0; 
stroke:#000000; stroke-width:100; stroke-opacity:1; 
stroke-linecap:round; stroke-linejoin:round;">
</g>
<g style="fill:#000000; fill-opacity:0.0; 
stroke:#000000; stroke-width:60; stroke-opacity:1; 
stroke-linecap:round; stroke-linejoin:round;">
<text x="70080" y="72340"
textLength="3850" font-size="780" lengthAdjust="spacingAndGlyphs"
text-anchor="start" opacity="0">Sheet: /</text>
<path d="M70220 72280
L70300 72310
L70440 72310
L70500 72280
L70530 72260
L70550 72200
L70550 72140
L70530 72090
L70500 72060
L70440 72030
L70330 72000
L70270 71970
L70250 71950
L70220 71890
L70220 71830
L70250 71780
L70270 71750
L70330 71720
L70470 71720
L70550 71750
" />
<path d="M70810 72310
L70810 71720
" />
<path d="M71060 72310
L71060 72000
L71030 71950
L70980 71920
L70890 71920
L70840 71950
L70810 71970
" />
<path d="M71570 72280
L71510 72310
L71400 72310
L71340 72280
L71310 72230
L71310 72000
L71340 71950
L71400 71920
L71510 71920
L71570 71950
L71590 72000
L71590 72060
L71310 72120
" />
<path d="M72070 72280
L72020 72310
L71900 72310
L71850 72280
L71820 72230
L71820 72000
L71850 71950
L71900 71920
L72020 71920
L72070 71950
L72100 72000
L72100 72060
L71820 72120
" />
<path d="M72270 71920
L72490 71920
" />
<path d="M72350 71720
L72350 72230
L72380 72280
L72440 72310
L72490 72310
" />
<path d="M72690 72260
L72720 72280
L72690 72310
L72660 72280
L72690 72260
L72690 72310
" />
<path d="M72690 71950
L72720 71970
L72690 72000
L72660 71970
L72690 71950
L72690 72000
" />
<path d="M73840 71690
L73340 72450
" />
</g>
<g style="fill:#000000; fill-opacity:0.0; 
stroke:#000000; stroke-width:100; stroke-opacity:1; 
stroke-linecap:round; stroke-linejoin:round;">
</g>
<g style="fill:#000000; fill-opacity:0.0; 
stroke:#000000; stroke-width:60; stroke-opacity:1; 
stroke-linecap:round; stroke-linejoin:round;">
<text x="70080" y="68800"
textLength="6300" font-size="780" lengthAdjust="spacingAndGlyphs"
text-anchor="start" opacity="0">Mikhail Belkin</text>
<path d="M70250 68770
L70250 68180
L70440 68600
L70640 68180
L70640 68770
" />
<path d="M70920 68770
L70920 68380
" />
<path d="M70920 68180
L70890 68210
L70920 68240
L70950 68210
L70920 68180
L70920 68240
" />
<path d="M71200 68770
L71200 68180
" />
<path d="M71260 68550
L71430 68770
" />
<path d="M71430 68380
L71200 68600
" />
<path d="M71680 68770
L71680 68180
" />
<path d="M71930 68770
L71930 68460
L71900 68410
L71850 68380
L71760 68380
L71710 68410
L71680 68430
" />
<path d="M72470 68770
L72470 68460
L72440 68410
L72380 68380
L72270 68380
L72210 68410
" />
<path d="M72470 68740
L72410 68770
L72270 68770
L72210 68740
L72180 68690
L72180 68630
L72210 68580
L72270 68550
L72410 68550
L72470 68520
" />
<path d="M72750 68770
L72750 68380
" />
<path d="M72750 68180
L72720 68210
L72750 68240
L72770 68210
L72750 68180
L72750 68240
" />
<path d="M73110 68770
L73060 68740
L73030 68690
L73030 68180
" />
<path d="M73980 68460
L74070 68490
L74090 68520
L74120 68580
L74120 68660
L74090 68720
L74070 68740
L74010 68770
L73790 68770
L73790 68180
L73980 68180
L74040 68210
L74070 68240
L74090 68290
L74090 68350
L74070 68410
L74040 68430
L73980 68460
L73790 68460
" />
<path d="M74600 68740
L74540 68770
L74430 68770
L74380 68740
L74350 68690
L74350 68460
L74380 68410
L74430 68380
L74540 68380
L74600 68410
L74630 68460
L74630 68520
L74350 68580
" />
<path d="M74970 68770
L74910 68740
L74880 68690
L74880 68180
" />
<path d="M75190 68770
L75190 68180
" />
<path d="M75250 68550
L75420 68770
" />
<path d="M75420 68380
L75190 68600
" />
<path d="M75670 68770
L75670 68380
" />
<path d="M75670 68180
L75640 68210
L75670 68240
L75700 68210
L75670 68180
L75670 68240
" />
<path d="M75950 68380
L75950 68770
" />
<path d="M75950 68430
L75980 68410
L76030 68380
L76120 68380
L76170 68410
L76200 68460
L76200 68770
" />
</g>
<g style="fill:#000000; fill-opacity:0.0; 
stroke:#000000; stroke-width:100; stroke-opacity:1; 
stroke-linecap:round; stroke-linejoin:round;">
</g>
<g style="fill:#000000; fill-opacity:0.0; 
stroke:#000000; stroke-width:60; stroke-opacity:1; 
stroke-linecap:round; stroke-linejoin:round;">
<path d="M77560 75400
L77560 76580
" />
</g>
<g style="fill:#000000; fill-opacity:0.0; 
stroke:#000000; stroke-width:100; stroke-opacity:1; 
stroke-linecap:round; stroke-linejoin:round;">
</g>
<g style="fill:#000000; fill-opacity:0.0; 
stroke:#000000; stroke-width:60; stroke-opacity:1; 
stroke-linecap:round; stroke-linejoin:round;">
<path d="M102760 75400
L102760 77960
" />
</g>
<g style="fill:#000000; fill-opacity:0.0; 
stroke:#000000; stroke-width:0; stroke-opacity:1; 
stroke-linecap:round; stroke-linejoin:round;">
<g >
</g>
<g style="fill:#000000; fill-opacity:0.0; 
stroke:#000000; stroke-width:200; stroke-opacity:1; 
stroke-linecap:round; stroke-linejoin:round;">
<path style="fill:#000000; fill-opacity:0.0; 
stroke:#000000; stroke-width:200; stroke-opacity:1; 
stroke-linecap:round; stroke-linejoin:round;fill:none"
d="M 46800,28200
45200,28200
" /> 
<path style="fill:#000000; fill-opacity:0.0; 
stroke:#000000; stroke-width:200; stroke-opacity:1; 
stroke-linecap:round; stroke-linejoin:round;fill:none"
d="M 46800,28800
45200,28800
" /> 
</g>
<g style="fill:#000000; fill-opacity:0.0; 
stroke:#000000; stroke-width:60; stroke-opacity:1; 
stroke-linecap:round; stroke-linejoin:round;">
<path d="M46000 28900
L46000 30000
" />
<path d="M46000 28100
L46000 27000
" />
<text x="46480" y="27720"
textLength="1040" font-size="660" lengthAdjust="spacingAndGlyphs"
text-anchor="middle" opacity="0">C1</text>
<path d="M46390 27640
L46370 27670
L46300 27690
L46250 27690
L46180 27670
L46130 27620
L46110 27570
L46080 27480
L46080 27410
L46110 27310
L46130 27260
L46180 27220
L46250 27190
L46300 27190
L46370 27220
L46390 27240
" />
<path d="M46870 27690
L46580 27690
" />
<path d="M46730 27690
L46730 27190
L46680 27260
L46630 27310
L46580 27330
" />
<text x="47050" y="29720"
textLength="1890" font-size="660" lengthAdjust="spacingAndGlyphs"
text-anchor="middle" opacity="0">10uF</text>
<path d="M46510 29690
L46220 29690
" />
<path d="M46370 29690
L46370 29190
L46320 29260
L46270 29310
L46220 29330
" />
<path d="M46820 29190
L46870 29190
L46910 29220
L46940 29240
L46960 29290
L46990 29380
L46990 29500
L46960 29600
L46940 29640
L46910 29670
L46870 29690
L46820 29690
L46770 29670
L46750 29640
L46720 29600
L46700 29500
L46700 29380
L46720 29290
L46750 29240
L46770 29220
L46820 29190
" />
<path d="M47410 29360
L47410 29690
" />
<path d="M47200 29360
L47200 29620
L47220 29670
L47270 29690
L47340 29690
L47390 29670
L47410 29640
" />
<path d="M47820 29430
L47650 29430
" />
<path d="M47650 29690
L47650 29190
L47890 29190
" />
</g>
</g>
<g style="fill:#000000; fill-opacity:0.0; 
stroke:#000000; stroke-width:0; stroke-opacity:1; 
stroke-linecap:round; stroke-linejoin:round;">
<g >
</g>
<g style="fill:#000000; fill-opacity:0.0; 
stroke:#000000; stroke-width:100; stroke-opacity:1; 
stroke-linecap:round; stroke-linejoin:round;">
<rect x="68000" y="24000" width="1000" height="2000" rx="0" />
</g>
<g style="fill:#000000; fill-opacity:0.0; 
stroke:#000000; stroke-width:60; stroke-opacity:1; 
stroke-linecap:round; stroke-linejoin:round;">
<rect x="68000" y="25450" width="500" height="100" rx="0" />
<rect x="68000" y="24450" width="500" height="100" rx="0" />
</g>
<g style="fill:#000000; fill-opacity:0.0; 
stroke:#000000; stroke-width:100; stroke-opacity:1; 
stroke-linecap:round; stroke-linejoin:round;">
<rect x="68000" y="24000" width="1000" height="2000" rx="0" />
</g>
<g style="fill:#000000; fill-opacity:0.0; 
stroke:#000000; stroke-width:60; stroke-opacity:1; 
stroke-linecap:round; stroke-linejoin:round;">
<path d="M68000 24500
L66500 24500
" />
<text x="67250" y="24400"
textLength="540" font-size="660" lengthAdjust="spacingAndGlyphs"
text-anchor="middle" opacity="0">1</text>
<path d="M67390 24370
L67100 24370
" />
<path d="M67250 24370
L67250 23870
L67200 23940
L67150 23990
L67100 24010
" />
<path d="M68000 25500
L66500 25500
" />
<text x="67250" y="25400"
textLength="540" font-size="660" lengthAdjust="spacingAndGlyphs"
text-anchor="middle" opacity="0">2</text>
<path d="M67100 24920
L67130 24900
L67170 24870
L67290 24870
L67340 24900
L67360 24920
L67390 24970
L67390 25010
L67360 25090
L67080 25370
L67390 25370
" />
<text x="69760" y="24850"
textLength="920" font-size="660" lengthAdjust="spacingAndGlyphs"
text-anchor="middle" opacity="0">J1</text>
<path d="M69590 24320
L69590 24680
L69560 24750
L69520 24800
L69450 24820
L69400 24820
" />
<path d="M70090 24820
L69800 24820
" />
<path d="M69950 24820
L69950 24320
L69900 24390
L69850 24440
L69800 24460
" />
<text x="70540" y="25760"
textLength="2490" font-size="660" lengthAdjust="spacingAndGlyphs"
text-anchor="middle" opacity="0">out 9v</text>
<path d="M69510 25730
L69460 25710
L69440 25680
L69420 25640
L69420 25490
L69440 25450
L69460 25420
L69510 25400
L69580 25400
L69630 25420
L69650 25450
L69680 25490
L69680 25640
L69650 25680
L69630 25710
L69580 25730
L69510 25730
" />
<path d="M70110 25400
L70110 25730
" />
<path d="M69890 25400
L69890 25660
L69920 25710
L69960 25730
L70040 25730
L70080 25710
L70110 25680
" />
<path d="M70270 25400
L70460 25400
" />
<path d="M70340 25230
L70340 25660
L70370 25710
L70420 25730
L70460 25730
" />
<path d="M71040 25730
L71130 25730
L71180 25710
L71200 25680
L71250 25610
L71270 25520
L71270 25330
L71250 25280
L71230 25260
L71180 25230
L71080 25230
L71040 25260
L71010 25280
L70990 25330
L70990 25450
L71010 25490
L71040 25520
L71080 25540
L71180 25540
L71230 25520
L71250 25490
L71270 25450
" />
<path d="M71440 25400
L71560 25730
L71680 25400
" />
</g>
</g>
<g style="fill:#000000; fill-opacity:0.0; 
stroke:#000000; stroke-width:0; stroke-opacity:1; 
stroke-linecap:round; stroke-linejoin:round;">
<g >
</g>
<g style="fill:#000000; fill-opacity:0.0; 
stroke:#000000; stroke-width:200; stroke-opacity:1; 
stroke-linecap:round; stroke-linejoin:round;">
<path style="fill:#000000; fill-opacity:0.0; 
stroke:#000000; stroke-width:200; stroke-opacity:1; 
stroke-linecap:round; stroke-linejoin:round;fill:none"
d="M 51800,26700
50200,26700
" /> 
<path style="fill:#000000; fill-opacity:0.0; 
stroke:#000000; stroke-width:200; stroke-opacity:1; 
stroke-linecap:round; stroke-linejoin:round;fill:none"
d="M 51800,27300
50200,27300
" /> 
</g>
<g style="fill:#000000; fill-opacity:0.0; 
stroke:#000000; stroke-width:60; stroke-opacity:1; 
stroke-linecap:round; stroke-linejoin:round;">
<path d="M51000 27400
L51000 28500
" />
<path d="M51000 26600
L51000 25500
" />
<text x="51480" y="26220"
textLength="1040" font-size="660" lengthAdjust="spacingAndGlyphs"
text-anchor="middle" opacity="0">C2</text>
<path d="M51390 26140
L51370 26170
L51300 26190
L51250 26190
L51180 26170
L51130 26120
L51110 26070
L51080 25980
L51080 25910
L51110 25810
L51130 25760
L51180 25720
L51250 25690
L51300 25690
L51370 25720
L51390 25740
" />
<path d="M51580 25740
L51610 25720
L51650 25690
L51770 25690
L51820 25720
L51840 25740
L51870 25790
L51870 25830
L51840 25910
L51560 26190
L51870 26190
" />
<text x="51790" y="28220"
textLength="1420" font-size="660" lengthAdjust="spacingAndGlyphs"
text-anchor="middle" opacity="0">1uF</text>
<path d="M51490 28190
L51200 28190
" />
<path d="M51340 28190
L51340 27690
L51300 27760
L51250 27810
L51200 27830
" />
<path d="M51920 27860
L51920 28190
" />
<path d="M51700 27860
L51700 28120
L51730 28170
L51770 28190
L51840 28190
L51890 28170
L51920 28140
" />
<path d="M52320 27930
L52150 27930
" />
<path d="M52150 28190
L52150 27690
L52390 27690
" />
</g>
</g>
<g style="fill:#000000; fill-opacity:0.0; 
stroke:#000000; stroke-width:0; stroke-opacity:1; 
stroke-linecap:round; stroke-linejoin:round;">
<g >
</g>
<g style="fill:#000000; fill-opacity:0.0; 
stroke:#000000; stroke-width:60; stroke-opacity:1; 
stroke-linecap:round; stroke-linejoin:round;">
<path style="fill:#000000; fill-opacity:0.0; 
stroke:#000000; stroke-width:60; stroke-opacity:1; 
stroke-linecap:round; stroke-linejoin:round;fill:none"
d="M 59500,24000
60500,24000
" /> 
</g>
<g style="fill:#000000; fill-opacity:0.0; 
stroke:#000000; stroke-width:80; stroke-opacity:1; 
stroke-linecap:round; stroke-linejoin:round;">
<path style="fill:#000000; fill-opacity:0.0; 
stroke:#000000; stroke-width:80; stroke-opacity:1; 
stroke-linecap:round; stroke-linejoin:round;fill:none"
d="M 59500,24500
59500,23500
60500,24000
Z" /> 
<path style="fill:#000000; fill-opacity:0.0; 
stroke:#000000; stroke-width:80; stroke-opacity:1; 
stroke-linecap:round; stroke-linejoin:round;fill:none"
d="M 60750,24250
60750,24500
60500,24500
60500,23500
60250,23500
60250,23750
" /> 
</g>
<g style="fill:#000000; fill-opacity:0.0; 
stroke:#000000; stroke-width:60; stroke-opacity:1; 
stroke-linecap:round; stroke-linejoin:round;">
<path d="M60500 24000
L61500 24000
" />
<path d="M59500 24000
L58500 24000
" />
<text x="60000" y="25220"
textLength="1040" font-size="660" lengthAdjust="spacingAndGlyphs"
text-anchor="middle" opacity="0">D2</text>
<path d="M59630 25190
L59630 24690
L59750 24690
L59820 24720
L59860 24760
L59890 24810
L59910 24910
L59910 24980
L59890 25070
L59860 25120
L59820 25170
L59750 25190
L59630 25190
" />
<path d="M60100 24740
L60130 24720
L60170 24690
L60290 24690
L60340 24720
L60360 24740
L60390 24790
L60390 24830
L60360 24910
L60080 25190
L60390 25190
" />
<text x="60000" y="22970"
textLength="2960" font-size="660" lengthAdjust="spacingAndGlyphs"
text-anchor="middle" opacity="0">1N5822</text>
<path d="M58920 22940
L58640 22940
" />
<path d="M58780 22940
L58780 22440
L58730 22510
L58690 22560
L58640 22580
" />
<path d="M59140 22940
L59140 22440
L59420 22940
L59420 22440
" />
<path d="M59900 22440
L59660 22440
L59640 22680
L59660 22660
L59710 22630
L59830 22630
L59880 22660
L59900 22680
L59920 22730
L59920 22850
L59900 22890
L59880 22920
L59830 22940
L59710 22940
L59660 22920
L59640 22890
" />
<path d="M60210 22660
L60160 22630
L60140 22610
L60110 22560
L60110 22540
L60140 22490
L60160 22470
L60210 22440
L60300 22440
L60350 22470
L60380 22490
L60400 22540
L60400 22560
L60380 22610
L60350 22630
L60300 22660
L60210 22660
L60160 22680
L60140 22700
L60110 22750
L60110 22850
L60140 22890
L60160 22920
L60210 22940
L60300 22940
L60350 22920
L60380 22890
L60400 22850
L60400 22750
L60380 22700
L60350 22680
L60300 22660
" />
<path d="M60590 22490
L60610 22470
L60660 22440
L60780 22440
L60830 22470
L60850 22490
L60880 22540
L60880 22580
L60850 22660
L60570 22940
L60880 22940
" />
<path d="M61070 22490
L61090 22470
L61140 22440
L61260 22440
L61300 22470
L61330 22490
L61350 22540
L61350 22580
L61330 22660
L61040 22940
L61350 22940
" />
</g>
</g>
<g style="fill:#000000; fill-opacity:0.0; 
stroke:#000000; stroke-width:0; stroke-opacity:1; 
stroke-linecap:round; stroke-linejoin:round;">
<g >
</g>
<g style="fill:#000000; fill-opacity:0.0; 
stroke:#000000; stroke-width:60; stroke-opacity:1; 
stroke-linecap:round; stroke-linejoin:round;">
<path d="M56000 23999.6 A250 250 0.0 0 0 55500 23999.6 " />
<path d="M55500 23999.6 A250 250 0.0 0 0 55000 23999.6 " />
<path d="M55000 23999.6 A250 250 0.0 0 0 54500 23999.6 " />
<path d="M54500 23999.6 A250 250 0.0 0 0 54000 23999.6 " />
<path d="M54000 24000
L53500 24000
" />
<path d="M56000 24000
L56500 24000
" />
<text x="57000" y="23220"
textLength="940" font-size="660" lengthAdjust="spacingAndGlyphs"
text-anchor="middle" opacity="0">L1</text>
<path d="M56910 23190
L56670 23190
L56670 22690
" />
<path d="M57340 23190
L57050 23190
" />
<path d="M57200 23190
L57200 22690
L57150 22760
L57100 22810
L57050 22830
" />
<text x="55000" y="23230"
textLength="2440" font-size="660" lengthAdjust="spacingAndGlyphs"
text-anchor="middle" opacity="0">4.7mH</text>
<path d="M54140 22870
L54140 23200
" />
<path d="M54020 22680
L53900 23030
L54210 23030
" />
<path d="M54400 23150
L54420 23180
L54400 23200
L54380 23180
L54400 23150
L54400 23200
" />
<path d="M54590 22700
L54920 22700
L54710 23200
" />
<path d="M55110 23200
L55110 22870
" />
<path d="M55110 22920
L55140 22890
L55190 22870
L55260 22870
L55300 22890
L55330 22940
L55330 23200
" />
<path d="M55330 22940
L55350 22890
L55400 22870
L55470 22870
L55520 22890
L55540 22940
L55540 23200
" />
<path d="M55780 23200
L55780 22700
" />
<path d="M55780 22940
L56070 22940
" />
<path d="M56070 23200
L56070 22700
" />
</g>
</g>
<g style="fill:#000000; fill-opacity:0.0; 
stroke:#000000; stroke-width:0; stroke-opacity:1; 
stroke-linecap:round; stroke-linejoin:round;">
<g >
</g>
<g style="fill:#000000; fill-opacity:1.0; 
stroke:#000000; stroke-width:60; stroke-opacity:1; 
stroke-linecap:round; stroke-linejoin:round;">
<rect x="40100" y="29300" width="1800" height="100" rx="0" />
<rect x="40380" y="29530" width="1200" height="200" rx="0" />
</g>
<g style="fill:#000000; fill-opacity:0.0; 
stroke:#000000; stroke-width:60; stroke-opacity:1; 
stroke-linecap:round; stroke-linejoin:round;">
<path style="fill:#000000; fill-opacity:0.0; 
stroke:#000000; stroke-width:60; stroke-opacity:1; 
stroke-linecap:round; stroke-linejoin:round;fill:none"
d="M 41000,29700
41000,30000
" /> 
<path style="fill:#000000; fill-opacity:0.0; 
stroke:#000000; stroke-width:60; stroke-opacity:1; 
stroke-linecap:round; stroke-linejoin:round;fill:none"
d="M 41000,29300
41000,29000
" /> 
</g>
<g style="fill:#000000; fill-opacity:0.0; 
stroke:#000000; stroke-width:100; stroke-opacity:1; 
stroke-linecap:round; stroke-linejoin:round;">
<path style="fill:#000000; fill-opacity:0.0; 
stroke:#000000; stroke-width:100; stroke-opacity:1; 
stroke-linecap:round; stroke-linejoin:round;fill:none"
d="M 41200,28650
41600,28650
" /> 
<path style="fill:#000000; fill-opacity:0.0; 
stroke:#000000; stroke-width:100; stroke-opacity:1; 
stroke-linecap:round; stroke-linejoin:round;fill:none"
d="M 41400,28450
41400,28850
" /> 
</g>
<g style="fill:#000000; fill-opacity:0.0; 
stroke:#000000; stroke-width:60; stroke-opacity:1; 
stroke-linecap:round; stroke-linejoin:round;">
<path d="M41000 29000
L41000 28000
" />
<path d="M41000 30000
L41000 31000
" />
<text x="42890" y="29310"
textLength="1420" font-size="660" lengthAdjust="spacingAndGlyphs"
text-anchor="middle" opacity="0">BT1</text>
<path d="M42490 29020
L42560 29040
L42590 29070
L42610 29110
L42610 29190
L42590 29230
L42560 29260
L42520 29280
L42330 29280
L42330 28780
L42490 28780
L42540 28810
L42560 28830
L42590 28880
L42590 28920
L42560 28970
L42540 29000
L42490 29020
L42330 29020
" />
<path d="M42750 28780
L43040 28780
" />
<path d="M42900 29280
L42900 28780
" />
<path d="M43470 29280
L43180 29280
" />
<path d="M43330 29280
L43330 28780
L43280 28850
L43230 28900
L43180 28920
" />
<text x="42640" y="30220"
textLength="920" font-size="660" lengthAdjust="spacingAndGlyphs"
text-anchor="middle" opacity="0">AA</text>
<path d="M42300 30050
L42540 30050
" />
<path d="M42250 30190
L42420 29690
L42590 30190
" />
<path d="M42730 30050
L42970 30050
" />
<path d="M42680 30190
L42850 29690
L43020 30190
" />
</g>
</g>
<g style="fill:#000000; fill-opacity:0.0; 
stroke:#000000; stroke-width:0; stroke-opacity:1; 
stroke-linecap:round; stroke-linejoin:round;">
<g >
</g>
<g style="fill:#000000; fill-opacity:0.0; 
stroke:#000000; stroke-width:100; stroke-opacity:1; 
stroke-linecap:round; stroke-linejoin:round;">
<rect x="61100" y="28500" width="800" height="2000" rx="0" />
</g>
<g style="fill:#000000; fill-opacity:0.0; 
stroke:#000000; stroke-width:60; stroke-opacity:1; 
stroke-linecap:round; stroke-linejoin:round;">
<path d="M61500 28500
L61500 28000
" />
<path d="M61500 30500
L61500 31000
" />
<text x="62720" y="29310"
textLength="1040" font-size="660" lengthAdjust="spacingAndGlyphs"
text-anchor="middle" opacity="0">R3</text>
<path d="M62630 29280
L62470 29040
" />
<path d="M62350 29280
L62350 28780
L62540 28780
L62580 28810
L62610 28830
L62630 28880
L62630 28950
L62610 29000
L62580 29020
L62540 29040
L62350 29040
" />
<path d="M62800 28780
L63110 28780
L62940 28970
L63010 28970
L63060 29000
L63080 29020
L63110 29070
L63110 29190
L63080 29230
L63060 29260
L63010 29280
L62870 29280
L62820 29260
L62800 29230
" />
<text x="62670" y="30220"
textLength="940" font-size="660" lengthAdjust="spacingAndGlyphs"
text-anchor="middle" opacity="0">6k</text>
<path d="M62560 29690
L62460 29690
L62420 29720
L62390 29740
L62340 29810
L62320 29910
L62320 30100
L62340 30140
L62370 30170
L62420 30190
L62510 30190
L62560 30170
L62580 30140
L62610 30100
L62610 29980
L62580 29930
L62560 29910
L62510 29880
L62420 29880
L62370 29910
L62340 29930
L62320 29980
" />
<path d="M62820 30190
L62820 29690
" />
<path d="M62870 30000
L63010 30190
" />
<path d="M63010 29860
L62820 30050
" />
</g>
</g>
<g style="fill:#000000; fill-opacity:0.0; 
stroke:#000000; stroke-width:0; stroke-opacity:1; 
stroke-linecap:round; stroke-linejoin:round;">
<g >
</g>
<g style="fill:#000000; fill-opacity:0.0; 
stroke:#000000; stroke-width:100; stroke-opacity:1; 
stroke-linecap:round; stroke-linejoin:round;">
<rect x="61100" y="25000" width="800" height="2000" rx="0" />
</g>
<g style="fill:#000000; fill-opacity:0.0; 
stroke:#000000; stroke-width:60; stroke-opacity:1; 
stroke-linecap:round; stroke-linejoin:round;">
<path d="M61500 25000
L61500 24500
" />
<path d="M61500 27000
L61500 27500
" />
<text x="62720" y="25810"
textLength="1040" font-size="660" lengthAdjust="spacingAndGlyphs"
text-anchor="middle" opacity="0">R2</text>
<path d="M62630 25780
L62470 25540
" />
<path d="M62350 25780
L62350 25280
L62540 25280
L62580 25310
L62610 25330
L62630 25380
L62630 25450
L62610 25500
L62580 25520
L62540 25540
L62350 25540
" />
<path d="M62820 25330
L62850 25310
L62890 25280
L63010 25280
L63060 25310
L63080 25330
L63110 25380
L63110 25420
L63080 25500
L62800 25780
L63110 25780
" />
<text x="62670" y="26720"
textLength="940" font-size="660" lengthAdjust="spacingAndGlyphs"
text-anchor="middle" opacity="0">1k</text>
<path d="M62610 26690
L62320 26690
" />
<path d="M62460 26690
L62460 26190
L62420 26260
L62370 26310
L62320 26330
" />
<path d="M62820 26690
L62820 26190
" />
<path d="M62870 26500
L63010 26690
" />
<path d="M63010 26360
L62820 26550
" />
</g>
</g>
<g style="fill:#000000; fill-opacity:0.0; 
stroke:#000000; stroke-width:0; stroke-opacity:1; 
stroke-linecap:round; stroke-linejoin:round;">
<g >
</g>
<g style="fill:#000000; fill-opacity:0.0; 
stroke:#000000; stroke-width:100; stroke-opacity:1; 
stroke-linecap:round; stroke-linejoin:round;">
<rect x="50600" y="30000" width="800" height="2000" rx="0" />
</g>
<g style="fill:#000000; fill-opacity:0.0; 
stroke:#000000; stroke-width:60; stroke-opacity:1; 
stroke-linecap:round; stroke-linejoin:round;">
<path d="M51000 30000
L51000 29500
" />
<path d="M51000 32000
L51000 32500
" />
<text x="52220" y="30810"
textLength="1040" font-size="660" lengthAdjust="spacingAndGlyphs"
text-anchor="middle" opacity="0">R1</text>
<path d="M52130 30780
L51970 30540
" />
<path d="M51850 30780
L51850 30280
L52040 30280
L52080 30310
L52110 30330
L52130 30380
L52130 30450
L52110 30500
L52080 30520
L52040 30540
L51850 30540
" />
<path d="M52610 30780
L52320 30780
" />
<path d="M52470 30780
L52470 30280
L52420 30350
L52370 30400
L52320 30420
" />
<text x="52490" y="31720"
textLength="1580" font-size="660" lengthAdjust="spacingAndGlyphs"
text-anchor="middle" opacity="0">10M</text>
<path d="M52100 31690
L51820 31690
" />
<path d="M51960 31690
L51960 31190
L51910 31260
L51870 31310
L51820 31330
" />
<path d="M52410 31190
L52460 31190
L52510 31220
L52530 31240
L52560 31290
L52580 31380
L52580 31500
L52560 31600
L52530 31640
L52510 31670
L52460 31690
L52410 31690
L52370 31670
L52340 31640
L52320 31600
L52290 31500
L52290 31380
L52320 31290
L52340 31240
L52370 31220
L52410 31190
" />
<path d="M52790 31690
L52790 31190
L52960 31550
L53130 31190
L53130 31690
" />
</g>
</g>
<g style="fill:#000000; fill-opacity:0.0; 
stroke:#000000; stroke-width:0; stroke-opacity:1; 
stroke-linecap:round; stroke-linejoin:round;">
<g >
</g>
<g style="fill:#000000; fill-opacity:0.0; 
stroke:#000000; stroke-width:200; stroke-opacity:1; 
stroke-linecap:round; stroke-linejoin:round;">
<path style="fill:#000000; fill-opacity:0.0; 
stroke:#000000; stroke-width:200; stroke-opacity:1; 
stroke-linecap:round; stroke-linejoin:round;fill:none"
d="M 64800,27700
63200,27700
" /> 
<path style="fill:#000000; fill-opacity:0.0; 
stroke:#000000; stroke-width:200; stroke-opacity:1; 
stroke-linecap:round; stroke-linejoin:round;fill:none"
d="M 64800,28300
63200,28300
" /> 
</g>
<g style="fill:#000000; fill-opacity:0.0; 
stroke:#000000; stroke-width:60; stroke-opacity:1; 
stroke-linecap:round; stroke-linejoin:round;">
<path d="M64000 28400
L64000 29500
" />
<path d="M64000 27600
L64000 26500
" />
<text x="64480" y="27220"
textLength="1040" font-size="660" lengthAdjust="spacingAndGlyphs"
text-anchor="middle" opacity="0">C3</text>
<path d="M64390 27140
L64370 27170
L64300 27190
L64250 27190
L64180 27170
L64130 27120
L64110 27070
L64080 26980
L64080 26910
L64110 26810
L64130 26760
L64180 26720
L64250 26690
L64300 26690
L64370 26720
L64390 26740
" />
<path d="M64560 26690
L64870 26690
L64700 26880
L64770 26880
L64820 26910
L64840 26930
L64870 26980
L64870 27100
L64840 27140
L64820 27170
L64770 27190
L64630 27190
L64580 27170
L64560 27140
" />
<text x="65050" y="29220"
textLength="1890" font-size="660" lengthAdjust="spacingAndGlyphs"
text-anchor="middle" opacity="0">10uF</text>
<path d="M64510 29190
L64220 29190
" />
<path d="M64370 29190
L64370 28690
L64320 28760
L64270 28810
L64220 28830
" />
<path d="M64820 28690
L64870 28690
L64910 28720
L64940 28740
L64960 28790
L64990 28880
L64990 29000
L64960 29100
L64940 29140
L64910 29170
L64870 29190
L64820 29190
L64770 29170
L64750 29140
L64720 29100
L64700 29000
L64700 28880
L64720 28790
L64750 28740
L64770 28720
L64820 28690
" />
<path d="M65410 28860
L65410 29190
" />
<path d="M65200 28860
L65200 29120
L65220 29170
L65270 29190
L65340 29190
L65390 29170
L65410 29140
" />
<path d="M65820 28930
L65650 28930
" />
<path d="M65650 29190
L65650 28690
L65890 28690
" />
</g>
</g>
<g style="fill:#000000; fill-opacity:0.0; 
stroke:#000000; stroke-width:0; stroke-opacity:1; 
stroke-linecap:round; stroke-linejoin:round;">
<g >
</g>
<g style="fill:#000000; fill-opacity:0.0; 
stroke:#000000; stroke-width:60; stroke-opacity:1; 
stroke-linecap:round; stroke-linejoin:round;">
<circle cx="42700" cy="24000" r="200" /> 
<circle cx="44300" cy="24000" r="200" /> 
<path style="fill:#000000; fill-opacity:0.0; 
stroke:#000000; stroke-width:60; stroke-opacity:1; 
stroke-linecap:round; stroke-linejoin:round;fill:none"
d="M 42900,23900
44100,23300
" /> 
<path d="M42500 24000
L41500 24000
" />
<text x="42000" y="24600"
textLength="540" font-size="660" lengthAdjust="spacingAndGlyphs"
text-anchor="middle" opacity="0">1</text>
<path d="M42140 24570
L41850 24570
" />
<path d="M42000 24570
L42000 24070
L41950 24140
L41900 24190
L41850 24210
" />
<path d="M44500 24000
L45500 24000
" />
<text x="45000" y="24600"
textLength="540" font-size="660" lengthAdjust="spacingAndGlyphs"
text-anchor="middle" opacity="0">2</text>
<path d="M44850 24120
L44880 24100
L44920 24070
L45040 24070
L45090 24100
L45110 24120
L45140 24170
L45140 24210
L45110 24290
L44830 24570
L45140 24570
" />
<text x="43500" y="21920"
textLength="1580" font-size="660" lengthAdjust="spacingAndGlyphs"
text-anchor="middle" opacity="0">SW1</text>
<path d="M42830 21870
L42900 21890
L43020 21890
L43070 21870
L43090 21840
L43110 21800
L43110 21750
L43090 21700
L43070 21680
L43020 21650
L42920 21630
L42880 21610
L42850 21580
L42830 21530
L42830 21490
L42850 21440
L42880 21420
L42920 21390
L43040 21390
L43110 21420
" />
<path d="M43280 21390
L43400 21890
L43500 21530
L43590 21890
L43710 21390
" />
<path d="M44160 21890
L43880 21890
" />
<path d="M44020 21890
L44020 21390
L43970 21460
L43920 21510
L43880 21530
" />
<text x="43500" y="22830"
textLength="3320" font-size="660" lengthAdjust="spacingAndGlyphs"
text-anchor="middle" opacity="0">SW_SPST</text>
<path d="M41960 22780
L42030 22800
L42150 22800
L42200 22780
L42220 22750
L42250 22710
L42250 22660
L42220 22610
L42200 22590
L42150 22560
L42050 22540
L42010 22520
L41980 22490
L41960 22440
L41960 22400
L41980 22350
L42010 22330
L42050 22300
L42170 22300
L42250 22330
" />
<path d="M42410 22300
L42530 22800
L42630 22440
L42720 22800
L42840 22300
" />
<path d="M42910 22850
L43290 22850
" />
<path d="M43390 22780
L43460 22800
L43580 22800
L43630 22780
L43650 22750
L43670 22710
L43670 22660
L43650 22610
L43630 22590
L43580 22560
L43480 22540
L43440 22520
L43410 22490
L43390 22440
L43390 22400
L43410 22350
L43440 22330
L43480 22300
L43600 22300
L43670 22330
" />
<path d="M43890 22800
L43890 22300
L44080 22300
L44130 22330
L44150 22350
L44170 22400
L44170 22470
L44150 22520
L44130 22540
L44080 22560
L43890 22560
" />
<path d="M44360 22780
L44440 22800
L44550 22800
L44600 22780
L44630 22750
L44650 22710
L44650 22660
L44630 22610
L44600 22590
L44550 22560
L44460 22540
L44410 22520
L44390 22490
L44360 22440
L44360 22400
L44390 22350
L44410 22330
L44460 22300
L44580 22300
L44650 22330
" />
<path d="M44790 22300
L45080 22300
" />
<path d="M44940 22800
L44940 22300
" />
</g>
</g>
<g style="fill:#000000; fill-opacity:0.0; 
stroke:#000000; stroke-width:0; stroke-opacity:1; 
stroke-linecap:round; stroke-linejoin:round;">
<g >
</g>
<g style="fill:#000000; fill-opacity:0.0; 
stroke:#000000; stroke-width:60; stroke-opacity:1; 
stroke-linecap:round; stroke-linejoin:round;">
<path style="fill:#000000; fill-opacity:0.0; 
stroke:#000000; stroke-width:60; stroke-opacity:1; 
stroke-linecap:round; stroke-linejoin:round;fill:none"
d="M 57500,33500
57500,34000
58000,34000
57500,34500
57000,34000
57500,34000
" /> 
<text x="58500" y="34770"
textLength="1580" font-size="660" lengthAdjust="spacingAndGlyphs"
text-anchor="middle" opacity="0">GND</text>
<path d="M58110 34270
L58070 34240
L58000 34240
L57920 34270
L57880 34310
L57850 34360
L57830 34460
L57830 34530
L57850 34620
L57880 34670
L57920 34720
L58000 34740
L58040 34740
L58110 34720
L58140 34690
L58140 34530
L58040 34530
" />
<path d="M58350 34740
L58350 34240
L58640 34740
L58640 34240
" />
<path d="M58880 34740
L58880 34240
L59000 34240
L59070 34270
L59110 34310
L59140 34360
L59160 34460
L59160 34530
L59140 34620
L59110 34670
L59070 34720
L59000 34740
L58880 34740
" />
</g>
</g>
<g style="fill:#000000; fill-opacity:0.0; 
stroke:#000000; stroke-width:0; stroke-opacity:1; 
stroke-linecap:round; stroke-linejoin:round;">
<g >
</g>
<g style="fill:#000000; fill-opacity:0.0; 
stroke:#000000; stroke-width:60; stroke-opacity:1; 
stroke-linecap:round; stroke-linejoin:round;">
<rect x="54500" y="26000" width="5500" height="4000" rx="0" />
<line x1="59000" y1="30000" x2="59000" y2="30000" />
<path d="M57500 30000
L57500 31000
" />
<g transform="rotate(-90 57500 29600)">
<text x="57500" y="29850"
textLength="1580" font-size="660" lengthAdjust="spacingAndGlyphs"
text-anchor="start" opacity="0">GND</text>
</g>
<path d="M57250 29180
L57220 29230
L57220 29300
L57250 29370
L57290 29420
L57340 29450
L57440 29470
L57510 29470
L57600 29450
L57650 29420
L57700 29370
L57720 29300
L57720 29260
L57700 29180
L57670 29160
L57510 29160
L57510 29260
" />
<path d="M57720 28950
L57220 28950
L57720 28660
L57220 28660
" />
<path d="M57720 28420
L57220 28420
L57220 28300
L57250 28230
L57290 28180
L57340 28160
L57440 28140
L57510 28140
L57600 28160
L57650 28180
L57700 28230
L57720 28300
L57720 28420
" />
<g transform="rotate(-90 57400 30500)">
<text x="57400" y="30500"
textLength="540" font-size="660" lengthAdjust="spacingAndGlyphs"
text-anchor="middle" opacity="0">2</text>
</g>
<path d="M56920 30640
L56900 30610
L56870 30570
L56870 30450
L56900 30400
L56920 30380
L56970 30350
L57010 30350
L57090 30380
L57370 30660
L57370 30350
" />
<path d="M54500 29000
L53500 29000
" />
<text x="54900" y="29250"
textLength="1010" font-size="660" lengthAdjust="spacingAndGlyphs"
text-anchor="start" opacity="0">CE</text>
<path d="M55330 29170
L55310 29200
L55230 29220
L55190 29220
L55120 29200
L55070 29150
L55040 29100
L55020 29010
L55020 28940
L55040 28840
L55070 28790
L55120 28750
L55190 28720
L55230 28720
L55310 28750
L55330 28770
" />
<path d="M55540 28960
L55710 28960
" />
<path d="M55780 29220
L55540 29220
L55540 28720
L55780 28720
" />
<text x="54000" y="28900"
textLength="540" font-size="660" lengthAdjust="spacingAndGlyphs"
text-anchor="middle" opacity="0">3</text>
<path d="M53830 28370
L54140 28370
L53970 28560
L54040 28560
L54090 28590
L54110 28610
L54140 28660
L54140 28780
L54110 28820
L54090 28850
L54040 28870
L53900 28870
L53850 28850
L53830 28820
" />
<path d="M60000 27500
L61000 27500
" />
<text x="59600" y="27750"
textLength="990" font-size="660" lengthAdjust="spacingAndGlyphs"
text-anchor="end" opacity="0">FB</text>
<path d="M58920 27460
L58760 27460
" />
<path d="M58760 27720
L58760 27220
L58990 27220
" />
<path d="M59350 27460
L59420 27480
L59450 27510
L59470 27550
L59470 27630
L59450 27670
L59420 27700
L59370 27720
L59180 27720
L59180 27220
L59350 27220
L59400 27250
L59420 27270
L59450 27320
L59450 27360
L59420 27410
L59400 27440
L59350 27460
L59180 27460
" />
<text x="60500" y="27400"
textLength="540" font-size="660" lengthAdjust="spacingAndGlyphs"
text-anchor="middle" opacity="0">4</text>
<path d="M60590 27040
L60590 27370
" />
<path d="M60470 26850
L60350 27200
L60660 27200
" />
<path d="M54500 27000
L53500 27000
" />
<text x="54900" y="27250"
textLength="1490" font-size="660" lengthAdjust="spacingAndGlyphs"
text-anchor="start" opacity="0">VDD</text>
<path d="M54970 26720
L55140 27220
L55310 26720
" />
<path d="M55470 27220
L55470 26720
L55590 26720
L55660 26750
L55710 26790
L55730 26840
L55760 26940
L55760 27010
L55730 27100
L55710 27150
L55660 27200
L55590 27220
L55470 27220
" />
<path d="M55970 27220
L55970 26720
L56090 26720
L56160 26750
L56210 26790
L56230 26840
L56260 26940
L56260 27010
L56230 27100
L56210 27150
L56160 27200
L56090 27220
L55970 27220
" />
<text x="54000" y="26900"
textLength="540" font-size="660" lengthAdjust="spacingAndGlyphs"
text-anchor="middle" opacity="0">5</text>
<path d="M54110 26370
L53880 26370
L53850 26610
L53880 26590
L53920 26560
L54040 26560
L54090 26590
L54110 26610
L54140 26660
L54140 26780
L54110 26820
L54090 26850
L54040 26870
L53920 26870
L53880 26850
L53850 26820
" />
<path d="M54500 28000
L53500 28000
" />
<text x="54900" y="28250"
textLength="1490" font-size="660" lengthAdjust="spacingAndGlyphs"
text-anchor="start" opacity="0">VDD</text>
<path d="M54970 27720
L55140 28220
L55310 27720
" />
<path d="M55470 28220
L55470 27720
L55590 27720
L55660 27750
L55710 27790
L55730 27840
L55760 27940
L55760 28010
L55730 28100
L55710 28150
L55660 28200
L55590 28220
L55470 28220
" />
<path d="M55970 28220
L55970 27720
L56090 27720
L56160 27750
L56210 27790
L56230 27840
L56260 27940
L56260 28010
L56230 28100
L56210 28150
L56160 28200
L56090 28220
L55970 28220
" />
<text x="54000" y="27900"
textLength="540" font-size="660" lengthAdjust="spacingAndGlyphs"
text-anchor="middle" opacity="0">6</text>
<path d="M54090 27370
L54000 27370
L53950 27400
L53920 27420
L53880 27490
L53850 27590
L53850 27780
L53880 27820
L53900 27850
L53950 27870
L54040 27870
L54090 27850
L54110 27820
L54140 27780
L54140 27660
L54110 27610
L54090 27590
L54040 27560
L53950 27560
L53900 27590
L53880 27610
L53850 27660
" />
<path d="M57000 26000
L57000 25000
" />
<g transform="rotate(-90 57000 26400)">
<text x="57000" y="26650"
textLength="940" font-size="660" lengthAdjust="spacingAndGlyphs"
text-anchor="end" opacity="0">LX</text>
</g>
<path d="M57220 26950
L57220 27190
L56720 27190
" />
<path d="M56720 26830
L57220 26500
" />
<path d="M56720 26500
L57220 26830
" />
<g transform="rotate(-90 56900 25500)">
<text x="56900" y="25500"
textLength="540" font-size="660" lengthAdjust="spacingAndGlyphs"
text-anchor="middle" opacity="0">7</text>
</g>
<path d="M56370 25660
L56370 25330
L56870 25540
" />
<path d="M58000 26000
L58000 25000
" />
<g transform="rotate(-90 58000 26400)">
<text x="58000" y="26650"
textLength="940" font-size="660" lengthAdjust="spacingAndGlyphs"
text-anchor="end" opacity="0">LX</text>
</g>
<path d="M58220 26950
L58220 27190
L57720 27190
" />
<path d="M57720 26830
L58220 26500
" />
<path d="M57720 26500
L58220 26830
" />
<g transform="rotate(-90 57900 25500)">
<text x="57900" y="25500"
textLength="540" font-size="660" lengthAdjust="spacingAndGlyphs"
text-anchor="middle" opacity="0">8</text>
</g>
<path d="M57590 25540
L57560 25590
L57540 25610
L57490 25640
L57470 25640
L57420 25610
L57400 25590
L57370 25540
L57370 25450
L57400 25400
L57420 25380
L57470 25350
L57490 25350
L57540 25380
L57560 25400
L57590 25450
L57590 25540
L57610 25590
L57630 25610
L57680 25640
L57780 25640
L57820 25610
L57850 25590
L57870 25540
L57870 25450
L57850 25400
L57820 25380
L57780 25350
L57680 25350
L57630 25380
L57610 25400
L57590 25450
" />
<text x="59000" y="25770"
textLength="1040" font-size="660" lengthAdjust="spacingAndGlyphs"
text-anchor="middle" opacity="0">D1</text>
<path d="M58630 25740
L58630 25240
L58750 25240
L58820 25270
L58860 25310
L58890 25360
L58910 25460
L58910 25530
L58890 25620
L58860 25670
L58820 25720
L58750 25740
L58630 25740
" />
<path d="M59390 25740
L59100 25740
" />
<path d="M59250 25740
L59250 25240
L59200 25310
L59150 25360
L59100 25380
" />
<text x="59500" y="30770"
textLength="2990" font-size="660" lengthAdjust="spacingAndGlyphs"
text-anchor="middle" opacity="0">ME2149</text>
<path d="M58150 30740
L58150 30240
L58320 30600
L58480 30240
L58480 30740
" />
<path d="M58720 30480
L58890 30480
" />
<path d="M58960 30740
L58720 30740
L58720 30240
L58960 30240
" />
<path d="M59150 30290
L59170 30270
L59220 30240
L59340 30240
L59390 30270
L59410 30290
L59440 30340
L59440 30380
L59410 30460
L59130 30740
L59440 30740
" />
<path d="M59910 30740
L59630 30740
" />
<path d="M59770 30740
L59770 30240
L59720 30310
L59670 30360
L59630 30380
" />
<path d="M60340 30410
L60340 30740
" />
<path d="M60220 30220
L60100 30570
L60410 30570
" />
<path d="M60630 30740
L60720 30740
L60770 30720
L60790 30690
L60840 30620
L60860 30530
L60860 30340
L60840 30290
L60820 30270
L60770 30240
L60670 30240
L60630 30270
L60600 30290
L60580 30340
L60580 30460
L60600 30500
L60630 30530
L60670 30550
L60770 30550
L60820 30530
L60840 30500
L60860 30460
" />
</g>
</g>
<g style="fill:#000000; fill-opacity:0.0; 
stroke:#000000; stroke-width:0; stroke-opacity:1; 
stroke-linecap:round; stroke-linejoin:round;">
<g >
</g>
<g style="fill:#000000; fill-opacity:0.0; 
stroke:#000000; stroke-width:100; stroke-opacity:1; 
stroke-linecap:round; stroke-linejoin:round;">
<rect x="48500" y="24600" width="2000" height="800" rx="0" />
</g>
<g style="fill:#000000; fill-opacity:0.0; 
stroke:#000000; stroke-width:60; stroke-opacity:1; 
stroke-linecap:round; stroke-linejoin:round;">
<path d="M50500 25000
L51000 25000
" />
<path d="M48500 25000
L48000 25000
" />
<text x="49520" y="26270"
textLength="1040" font-size="660" lengthAdjust="spacingAndGlyphs"
text-anchor="middle" opacity="0">R4</text>
<path d="M49430 26240
L49270 26000
" />
<path d="M49150 26240
L49150 25740
L49340 25740
L49380 25770
L49410 25790
L49430 25840
L49430 25910
L49410 25960
L49380 25980
L49340 26000
L49150 26000
" />
<path d="M49860 25910
L49860 26240
" />
<path d="M49740 25720
L49620 26070
L49930 26070
" />
<text x="49470" y="25270"
textLength="940" font-size="660" lengthAdjust="spacingAndGlyphs"
text-anchor="middle" opacity="0">1k</text>
<path d="M49410 25240
L49120 25240
" />
<path d="M49260 25240
L49260 24740
L49220 24810
L49170 24860
L49120 24880
" />
<path d="M49620 25240
L49620 24740
" />
<path d="M49670 25050
L49810 25240
" />
<path d="M49810 24910
L49620 25100
" />
</g>
</g>
<g style="fill:#000000; fill-opacity:0.0; 
stroke:#000000; stroke-width:0; stroke-opacity:1; 
stroke-linecap:round; stroke-linejoin:round;">
<g >
</g>
<g style="fill:#000000; fill-opacity:0.0; 
stroke:#000000; stroke-width:60; stroke-opacity:1; 
stroke-linecap:round; stroke-linejoin:round;">
<circle cx="49500" cy="31800" r="200" /> 
<circle cx="49500" cy="30200" r="200" /> 
<path style="fill:#000000; fill-opacity:0.0; 
stroke:#000000; stroke-width:60; stroke-opacity:1; 
stroke-linecap:round; stroke-linejoin:round;fill:none"
d="M 49400,31600
48800,30400
" /> 
<path d="M49500 32000
L49500 33000
" />
<g transform="rotate(-90 49600 32500)">
<text x="49600" y="33000"
textLength="540" font-size="660" lengthAdjust="spacingAndGlyphs"
text-anchor="middle" opacity="0">1</text>
</g>
<path d="M50070 32350
L50070 32640
" />
<path d="M50070 32500
L49570 32500
L49640 32540
L49690 32590
L49710 32640
" />
<path d="M49500 30000
L49500 29000
" />
<g transform="rotate(-90 49600 29500)">
<text x="49600" y="30000"
textLength="540" font-size="660" lengthAdjust="spacingAndGlyphs"
text-anchor="middle" opacity="0">2</text>
</g>
<path d="M49620 29640
L49600 29610
L49570 29570
L49570 29450
L49600 29400
L49620 29380
L49670 29350
L49710 29350
L49790 29380
L50070 29660
L50070 29350
" />
<g transform="rotate(-90 47520 30790)">
<text x="47520" y="31040"
textLength="1580" font-size="660" lengthAdjust="spacingAndGlyphs"
text-anchor="middle" opacity="0">SW2</text>
</g>
<path d="M47720 31450
L47740 31380
L47740 31260
L47720 31210
L47690 31190
L47650 31170
L47600 31170
L47550 31190
L47530 31210
L47500 31260
L47480 31360
L47460 31400
L47430 31430
L47380 31450
L47340 31450
L47290 31430
L47270 31400
L47240 31360
L47240 31240
L47270 31170
" />
<path d="M47240 31000
L47740 30880
L47380 30790
L47740 30690
L47240 30570
" />
<path d="M47290 30400
L47270 30380
L47240 30330
L47240 30210
L47270 30170
L47290 30140
L47340 30120
L47380 30120
L47460 30140
L47740 30430
L47740 30120
" />
<g transform="rotate(-90 48520 31160)">
<text x="48520" y="31410"
textLength="3320" font-size="660" lengthAdjust="spacingAndGlyphs"
text-anchor="middle" opacity="0">SW_SPST</text>
</g>
<path d="M48720 32690
L48740 32620
L48740 32500
L48720 32450
L48690 32430
L48650 32410
L48600 32410
L48550 32430
L48530 32450
L48500 32500
L48480 32600
L48460 32640
L48430 32670
L48380 32690
L48340 32690
L48290 32670
L48270 32640
L48240 32600
L48240 32480
L48270 32410
" />
<path d="M48240 32240
L48740 32120
L48380 32020
L48740 31930
L48240 31810
" />
<path d="M48790 31740
L48790 31360
" />
<path d="M48720 31260
L48740 31190
L48740 31070
L48720 31020
L48690 31000
L48650 30980
L48600 30980
L48550 31000
L48530 31020
L48500 31070
L48480 31170
L48460 31210
L48430 31240
L48380 31260
L48340 31260
L48290 31240
L48270 31210
L48240 31170
L48240 31050
L48270 30980
" />
<path d="M48740 30760
L48240 30760
L48240 30570
L48270 30520
L48290 30500
L48340 30480
L48410 30480
L48460 30500
L48480 30520
L48500 30570
L48500 30760
" />
<path d="M48720 30290
L48740 30210
L48740 30100
L48720 30050
L48690 30020
L48650 30000
L48600 30000
L48550 30020
L48530 30050
L48500 30100
L48480 30190
L48460 30240
L48430 30260
L48380 30290
L48340 30290
L48290 30260
L48270 30240
L48240 30190
L48240 30070
L48270 30000
" />
<path d="M48240 29860
L48240 29570
" />
<path d="M48740 29710
L48240 29710
" />
</g>
</g>
<g style="fill:#000000; fill-opacity:0.0; 
stroke:#000000; stroke-width:60; stroke-opacity:1; 
stroke-linecap:round; stroke-linejoin:round;">
<path d="M61500 27500
L61500 28000
" />
<path d="M47500 24000
L53000 24000
" />
<path d="M49500 29000
L51000 29000
" />
<path d="M47500 25000
L47500 24000
" />
<path d="M53500 24000
L53000 24000
" />
<path d="M57000 24000
L58000 24000
" />
<path d="M57000 24000
L57000 25000
" />
<path d="M56500 24000
L57000 24000
" />
<path d="M58000 24000
L58500 24000
" />
<path d="M58000 25000
L58000 24000
" />
<path d="M61500 24000
L61500 24500
" />
<path d="M48000 25000
L47500 25000
" />
<path d="M51000 25500
L51000 25000
" />
<path d="M61500 33000
L64000 33000
" />
<path d="M61000 27500
L61500 27500
" />
<path d="M46000 24000
L47500 24000
" />
<path d="M61500 33000
L57500 33000
" />
<path d="M66000 33000
L66000 25500
" />
<path d="M53000 24000
L53000 27000
" />
<path d="M64000 33000
L66000 33000
" />
<path d="M64000 33000
L64000 29500
" />
<path d="M53500 28000
L53000 28000
" />
<path d="M53000 27000
L53000 28000
" />
<path d="M53500 27000
L53000 27000
" />
<path d="M51000 29000
L51000 28500
" />
<path d="M51000 33000
L49500 33000
" />
<path d="M46000 33000
L49500 33000
" />
<path d="M66000 24500
L66500 24500
" />
<path d="M66000 24000
L66000 24500
" />
<path d="M64000 24000
L66000 24000
" />
<path d="M66500 25500
L66000 25500
" />
<path d="M61500 24000
L64000 24000
" />
<path d="M64000 26500
L64000 24000
" />
<path d="M46000 33000
L41000 33000
" />
<path d="M46000 30000
L46000 33000
" />
<path d="M46000 24000
L46000 27000
" />
<path d="M45500 24000
L46000 24000
" />
<path d="M41000 24000
L41000 28000
" />
<path d="M41000 24000
L41500 24000
" />
<path d="M41000 31000
L41000 33000
" />
<path d="M51000 29000
L51000 29500
" />
<path d="M51000 29000
L53500 29000
" />
<path d="M51000 32500
L51000 33000
" />
<path d="M61500 33000
L61500 31000
" />
<path d="M57500 31000
L57500 33000
" />
<path d="M57500 33000
L57500 33500
" />
<path d="M51000 33000
L57500 33000
" />
</g>
<g style="fill:#000000; fill-opacity:0.0; 
stroke:#000000; stroke-width:0; stroke-opacity:1; 
stroke-linecap:round; stroke-linejoin:round;">
</g>
<g style="fill:#000000; fill-opacity:1.0; 
stroke:#000000; stroke-width:100; stroke-opacity:1; 
stroke-linecap:round; stroke-linejoin:round;">
<circle cx="51000" cy="29000" r="200" /> 
</g>
<g style="fill:#000000; fill-opacity:1.0; 
stroke:#000000; stroke-width:0; stroke-opacity:1; 
stroke-linecap:round; stroke-linejoin:round;">
</g>
<g style="fill:#000000; fill-opacity:1.0; 
stroke:#000000; stroke-width:100; stroke-opacity:1; 
stroke-linecap:round; stroke-linejoin:round;">
<circle cx="49500" cy="33000" r="200" /> 
</g>
<g style="fill:#000000; fill-opacity:1.0; 
stroke:#000000; stroke-width:0; stroke-opacity:1; 
stroke-linecap:round; stroke-linejoin:round;">
</g>
<g style="fill:#000000; fill-opacity:1.0; 
stroke:#000000; stroke-width:100; stroke-opacity:1; 
stroke-linecap:round; stroke-linejoin:round;">
<circle cx="47500" cy="24000" r="200" /> 
</g>
<g style="fill:#000000; fill-opacity:1.0; 
stroke:#000000; stroke-width:0; stroke-opacity:1; 
stroke-linecap:round; stroke-linejoin:round;">
</g>
<g style="fill:#000000; fill-opacity:1.0; 
stroke:#000000; stroke-width:100; stroke-opacity:1; 
stroke-linecap:round; stroke-linejoin:round;">
<circle cx="51000" cy="33000" r="200" /> 
</g>
<g style="fill:#000000; fill-opacity:1.0; 
stroke:#000000; stroke-width:0; stroke-opacity:1; 
stroke-linecap:round; stroke-linejoin:round;">
</g>
<g style="fill:#000000; fill-opacity:1.0; 
stroke:#000000; stroke-width:100; stroke-opacity:1; 
stroke-linecap:round; stroke-linejoin:round;">
<circle cx="61500" cy="24000" r="200" /> 
</g>
<g style="fill:#000000; fill-opacity:1.0; 
stroke:#000000; stroke-width:0; stroke-opacity:1; 
stroke-linecap:round; stroke-linejoin:round;">
</g>
<g style="fill:#000000; fill-opacity:1.0; 
stroke:#000000; stroke-width:100; stroke-opacity:1; 
stroke-linecap:round; stroke-linejoin:round;">
<circle cx="58000" cy="24000" r="200" /> 
</g>
<g style="fill:#000000; fill-opacity:1.0; 
stroke:#000000; stroke-width:0; stroke-opacity:1; 
stroke-linecap:round; stroke-linejoin:round;">
</g>
<g style="fill:#000000; fill-opacity:1.0; 
stroke:#000000; stroke-width:100; stroke-opacity:1; 
stroke-linecap:round; stroke-linejoin:round;">
<circle cx="64000" cy="24000" r="200" /> 
</g>
<g style="fill:#000000; fill-opacity:1.0; 
stroke:#000000; stroke-width:0; stroke-opacity:1; 
stroke-linecap:round; stroke-linejoin:round;">
</g>
<g style="fill:#000000; fill-opacity:1.0; 
stroke:#000000; stroke-width:100; stroke-opacity:1; 
stroke-linecap:round; stroke-linejoin:round;">
<circle cx="57000" cy="24000" r="200" /> 
</g>
<g style="fill:#000000; fill-opacity:1.0; 
stroke:#000000; stroke-width:0; stroke-opacity:1; 
stroke-linecap:round; stroke-linejoin:round;">
</g>
<g style="fill:#000000; fill-opacity:1.0; 
stroke:#000000; stroke-width:100; stroke-opacity:1; 
stroke-linecap:round; stroke-linejoin:round;">
<circle cx="61500" cy="33000" r="200" /> 
</g>
<g style="fill:#000000; fill-opacity:1.0; 
stroke:#000000; stroke-width:0; stroke-opacity:1; 
stroke-linecap:round; stroke-linejoin:round;">
</g>
<g style="fill:#000000; fill-opacity:1.0; 
stroke:#000000; stroke-width:100; stroke-opacity:1; 
stroke-linecap:round; stroke-linejoin:round;">
<circle cx="64000" cy="33000" r="200" /> 
</g>
<g style="fill:#000000; fill-opacity:1.0; 
stroke:#000000; stroke-width:0; stroke-opacity:1; 
stroke-linecap:round; stroke-linejoin:round;">
</g>
<g style="fill:#000000; fill-opacity:1.0; 
stroke:#000000; stroke-width:100; stroke-opacity:1; 
stroke-linecap:round; stroke-linejoin:round;">
<circle cx="53000" cy="24000" r="200" /> 
</g>
<g style="fill:#000000; fill-opacity:1.0; 
stroke:#000000; stroke-width:0; stroke-opacity:1; 
stroke-linecap:round; stroke-linejoin:round;">
</g>
<g style="fill:#000000; fill-opacity:1.0; 
stroke:#000000; stroke-width:100; stroke-opacity:1; 
stroke-linecap:round; stroke-linejoin:round;">
<circle cx="53000" cy="27000" r="200" /> 
</g>
<g style="fill:#000000; fill-opacity:1.0; 
stroke:#000000; stroke-width:0; stroke-opacity:1; 
stroke-linecap:round; stroke-linejoin:round;">
</g>
<g style="fill:#000000; fill-opacity:1.0; 
stroke:#000000; stroke-width:100; stroke-opacity:1; 
stroke-linecap:round; stroke-linejoin:round;">
<circle cx="61500" cy="27500" r="200" /> 
</g>
<g style="fill:#000000; fill-opacity:1.0; 
stroke:#000000; stroke-width:0; stroke-opacity:1; 
stroke-linecap:round; stroke-linejoin:round;">
</g>
<g style="fill:#000000; fill-opacity:1.0; 
stroke:#000000; stroke-width:100; stroke-opacity:1; 
stroke-linecap:round; stroke-linejoin:round;">
<circle cx="46000" cy="24000" r="200" /> 
</g>
<g style="fill:#000000; fill-opacity:1.0; 
stroke:#000000; stroke-width:0; stroke-opacity:1; 
stroke-linecap:round; stroke-linejoin:round;">
</g>
<g style="fill:#000000; fill-opacity:1.0; 
stroke:#000000; stroke-width:100; stroke-opacity:1; 
stroke-linecap:round; stroke-linejoin:round;">
<circle cx="57500" cy="33000" r="200" /> 
</g>
<g style="fill:#000000; fill-opacity:1.0; 
stroke:#000000; stroke-width:0; stroke-opacity:1; 
stroke-linecap:round; stroke-linejoin:round;">
</g>
<g style="fill:#000000; fill-opacity:1.0; 
stroke:#000000; stroke-width:100; stroke-opacity:1; 
stroke-linecap:round; stroke-linejoin:round;">
<circle cx="46000" cy="33000" r="200" /> 
</g> 
</svg>
