<?xml version="1.0" standalone="no"?>
 <!DOCTYPE svg PUBLIC "-//W3C//DTD SVG 1.1//EN" 
 "http://www.w3.org/Graphics/SVG/1.1/DTD/svg11.dtd"> 
<svg xmlns="http://www.w3.org/2000/svg" version="1.1" 
    width="29.7002cm" height="21.0007cm" viewBox="0 0 116930 82680 ">
<title>SVG Picture created as autoOff09-F_Cu.svg date 2021/03/21 02:50:06 </title>
  <desc>Picture generated by PCBNEW </desc>
<g style="fill:#000000; fill-opacity:1;stroke:#000000; stroke-opacity:1;
stroke-linecap:round; stroke-linejoin:round; "
 transform="translate(0 0) scale(1 1)">
</g>
<g style="fill:#000000; fill-opacity:0.0; 
stroke:#000000; stroke-width:-0.000393701; stroke-opacity:1; 
stroke-linecap:round; stroke-linejoin:round;">
</g>
<g style="fill:#000000; fill-opacity:1.0; 
stroke:#000000; stroke-width:7.87402; stroke-opacity:1; 
stroke-linecap:round; stroke-linejoin:round;">
<rect x="42633.7" y="23794.7" width="15317.3" height="12623.8" rx="0" />
</g>
<g style="fill:#FFFFFF; fill-opacity:1.0; 
stroke:#FFFFFF; stroke-width:7.87402; stroke-opacity:1; 
stroke-linecap:round; stroke-linejoin:round;">
<g >
</g>
<g style="fill:#FFFFFF; fill-opacity:1.0; 
stroke:#FFFFFF; stroke-width:0; stroke-opacity:1; 
stroke-linecap:round; stroke-linejoin:round;">
<path style="fill:#FFFFFF; fill-opacity:1.0; 
stroke:#FFFFFF; stroke-width:0; stroke-opacity:1; 
stroke-linecap:round; stroke-linejoin:round;fill-rule:evenodd;"
d="M 48739,28589.4
48748.3,28590.8
48757.5,28593.1
48766.3,28596.3
48774.9,28600.3
48782.9,28605.1
48790.5,28610.8
48797.5,28617.1
48803.8,28624.1
48809.4,28631.6
48814.3,28639.7
48818.3,28648.2
48821.5,28657.1
48823.7,28666.2
48825.1,28675.5
48825.6,28684.9
48825.6,28876.9
48825.1,28886.3
48823.7,28895.6
48821.5,28904.7
48818.3,28913.6
48814.3,28922.1
48809.4,28930.2
48803.8,28937.7
48797.5,28944.7
48790.5,28951.1
48782.9,28956.7
48774.9,28961.5
48766.3,28965.5
48757.5,28968.7
48748.3,28971
48739,28972.4
48729.6,28972.8
48370.4,28972.8
48361,28972.4
48351.7,28971
48342.5,28968.7
48333.7,28965.5
48325.1,28961.5
48317.1,28956.7
48309.5,28951.1
48302.5,28944.7
48296.2,28937.7
48290.6,28930.2
48285.7,28922.1
48281.7,28913.6
48278.5,28904.7
48276.3,28895.6
48274.9,28886.3
48274.4,28876.9
48274.4,28684.9
48274.9,28675.5
48276.3,28666.2
48278.5,28657.1
48281.7,28648.2
48285.7,28639.7
48290.6,28631.6
48296.2,28624.1
48302.5,28617.1
48309.5,28610.8
48317.1,28605.1
48325.1,28600.3
48333.7,28596.3
48342.5,28593.1
48351.7,28590.8
48361,28589.4
48370.4,28589
48729.6,28589
Z" /> 
<path style="fill:#FFFFFF; fill-opacity:1.0; 
stroke:#FFFFFF; stroke-width:0; stroke-opacity:1; 
stroke-linecap:round; stroke-linejoin:round;fill-rule:evenodd;"
d="M 48739,29327.6
48748.3,29329
48757.5,29331.3
48766.3,29334.5
48774.9,29338.5
48782.9,29343.3
48790.5,29348.9
48797.5,29355.3
48803.8,29362.3
48809.4,29369.8
48814.3,29377.9
48818.3,29386.4
48821.5,29395.3
48823.7,29404.4
48825.1,29413.7
48825.6,29423.1
48825.6,29615.1
48825.1,29624.5
48823.7,29633.8
48821.5,29642.9
48818.3,29651.8
48814.3,29660.3
48809.4,29668.4
48803.8,29675.9
48797.5,29682.9
48790.5,29689.2
48782.9,29694.9
48774.9,29699.7
48766.3,29703.7
48757.5,29706.9
48748.3,29709.2
48739,29710.6
48729.6,29711
48370.4,29711
48361,29710.6
48351.7,29709.2
48342.5,29706.9
48333.7,29703.7
48325.1,29699.7
48317.1,29694.9
48309.5,29689.2
48302.5,29682.9
48296.2,29675.9
48290.6,29668.4
48285.7,29660.3
48281.7,29651.8
48278.5,29642.9
48276.3,29633.8
48274.9,29624.5
48274.4,29615.1
48274.4,29423.1
48274.9,29413.7
48276.3,29404.4
48278.5,29395.3
48281.7,29386.4
48285.7,29377.9
48290.6,29369.8
48296.2,29362.3
48302.5,29355.3
48309.5,29348.9
48317.1,29343.3
48325.1,29338.5
48333.7,29334.5
48342.5,29331.3
48351.7,29329
48361,29327.6
48370.4,29327.2
48729.6,29327.2
Z" /> 
</g>
<g >
</g>
<g style="fill:#FFFFFF; fill-opacity:1.0; 
stroke:#FFFFFF; stroke-width:0; stroke-opacity:1; 
stroke-linecap:round; stroke-linejoin:round;">
<path style="fill:#FFFFFF; fill-opacity:1.0; 
stroke:#FFFFFF; stroke-width:0; stroke-opacity:1; 
stroke-linecap:round; stroke-linejoin:round;fill-rule:evenodd;"
d="M 48755,26532.2
48760.7,26533
48766.4,26534.4
48771.8,26536.4
48777.1,26538.9
48782,26541.8
48786.7,26545.3
48791,26549.2
48794.9,26553.5
48798.3,26558.1
48801.3,26563.1
48803.8,26568.3
48805.7,26573.8
48807.1,26579.4
48808,26585.2
48808.3,26590.9
48808.3,26709.1
48808,26714.8
48807.1,26720.6
48805.7,26726.2
48803.8,26731.7
48801.3,26736.9
48798.3,26741.9
48794.9,26746.5
48791,26750.8
48786.7,26754.7
48782,26758.2
48777.1,26761.1
48771.8,26763.6
48766.4,26765.6
48760.7,26767
48755,26767.8
48749.2,26768.1
48178.3,26768.1
48172.6,26767.8
48166.8,26767
48161.2,26765.6
48155.7,26763.6
48150.5,26761.1
48145.5,26758.2
48140.9,26754.7
48136.6,26750.8
48132.7,26746.5
48129.2,26741.9
48126.3,26736.9
48123.8,26731.7
48121.8,26726.2
48120.4,26720.6
48119.6,26714.8
48119.3,26709.1
48119.3,26590.9
48119.6,26585.2
48120.4,26579.4
48121.8,26573.8
48123.8,26568.3
48126.3,26563.1
48129.2,26558.1
48132.7,26553.5
48136.6,26549.2
48140.9,26545.3
48145.5,26541.8
48150.5,26538.9
48155.7,26536.4
48161.2,26534.4
48166.8,26533
48172.6,26532.2
48178.3,26531.9
48749.2,26531.9
Z" /> 
<path style="fill:#FFFFFF; fill-opacity:1.0; 
stroke:#FFFFFF; stroke-width:0; stroke-opacity:1; 
stroke-linecap:round; stroke-linejoin:round;fill-rule:evenodd;"
d="M 48755,27032.2
48760.7,27033
48766.4,27034.4
48771.8,27036.4
48777.1,27038.9
48782,27041.8
48786.7,27045.3
48791,27049.2
48794.9,27053.5
48798.3,27058.1
48801.3,27063.1
48803.8,27068.3
48805.7,27073.8
48807.1,27079.4
48808,27085.2
48808.3,27090.9
48808.3,27209.1
48808,27214.8
48807.1,27220.6
48805.7,27226.2
48803.8,27231.7
48801.3,27236.9
48798.3,27241.9
48794.9,27246.5
48791,27250.8
48786.7,27254.7
48782,27258.2
48777.1,27261.1
48771.8,27263.6
48766.4,27265.6
48760.7,27267
48755,27267.8
48749.2,27268.1
48178.3,27268.1
48172.6,27267.8
48166.8,27267
48161.2,27265.6
48155.7,27263.6
48150.5,27261.1
48145.5,27258.2
48140.9,27254.7
48136.6,27250.8
48132.7,27246.5
48129.2,27241.9
48126.3,27236.9
48123.8,27231.7
48121.8,27226.2
48120.4,27220.6
48119.6,27214.8
48119.3,27209.1
48119.3,27090.9
48119.6,27085.2
48120.4,27079.4
48121.8,27073.8
48123.8,27068.3
48126.3,27063.1
48129.2,27058.1
48132.7,27053.5
48136.6,27049.2
48140.9,27045.3
48145.5,27041.8
48150.5,27038.9
48155.7,27036.4
48161.2,27034.4
48166.8,27033
48172.6,27032.2
48178.3,27031.9
48749.2,27031.9
Z" /> 
<path style="fill:#FFFFFF; fill-opacity:1.0; 
stroke:#FFFFFF; stroke-width:0; stroke-opacity:1; 
stroke-linecap:round; stroke-linejoin:round;fill-rule:evenodd;"
d="M 48755,27532.2
48760.7,27533
48766.4,27534.4
48771.8,27536.4
48777.1,27538.9
48782,27541.8
48786.7,27545.3
48791,27549.2
48794.9,27553.5
48798.3,27558.1
48801.3,27563.1
48803.8,27568.3
48805.7,27573.8
48807.1,27579.4
48808,27585.2
48808.3,27590.9
48808.3,27709.1
48808,27714.8
48807.1,27720.6
48805.7,27726.2
48803.8,27731.7
48801.3,27736.9
48798.3,27741.9
48794.9,27746.5
48791,27750.8
48786.7,27754.7
48782,27758.2
48777.1,27761.1
48771.8,27763.6
48766.4,27765.6
48760.7,27767
48755,27767.8
48749.2,27768.1
48178.3,27768.1
48172.6,27767.8
48166.8,27767
48161.2,27765.6
48155.7,27763.6
48150.5,27761.1
48145.5,27758.2
48140.9,27754.7
48136.6,27750.8
48132.7,27746.5
48129.2,27741.9
48126.3,27736.9
48123.8,27731.7
48121.8,27726.2
48120.4,27720.6
48119.6,27714.8
48119.3,27709.1
48119.3,27590.9
48119.6,27585.2
48120.4,27579.4
48121.8,27573.8
48123.8,27568.3
48126.3,27563.1
48129.2,27558.1
48132.7,27553.5
48136.6,27549.2
48140.9,27545.3
48145.5,27541.8
48150.5,27538.9
48155.7,27536.4
48161.2,27534.4
48166.8,27533
48172.6,27532.2
48178.3,27531.9
48749.2,27531.9
Z" /> 
<path style="fill:#FFFFFF; fill-opacity:1.0; 
stroke:#FFFFFF; stroke-width:0; stroke-opacity:1; 
stroke-linecap:round; stroke-linejoin:round;fill-rule:evenodd;"
d="M 48755,28032.2
48760.7,28033
48766.4,28034.4
48771.8,28036.4
48777.1,28038.9
48782,28041.8
48786.7,28045.3
48791,28049.2
48794.9,28053.5
48798.3,28058.1
48801.3,28063.1
48803.8,28068.3
48805.7,28073.8
48807.1,28079.4
48808,28085.2
48808.3,28090.9
48808.3,28209.1
48808,28214.8
48807.1,28220.6
48805.7,28226.2
48803.8,28231.7
48801.3,28236.9
48798.3,28241.9
48794.9,28246.5
48791,28250.8
48786.7,28254.7
48782,28258.2
48777.1,28261.1
48771.8,28263.6
48766.4,28265.6
48760.7,28267
48755,28267.8
48749.2,28268.1
48178.3,28268.1
48172.6,28267.8
48166.8,28267
48161.2,28265.6
48155.7,28263.6
48150.5,28261.1
48145.5,28258.2
48140.9,28254.7
48136.6,28250.8
48132.7,28246.5
48129.2,28241.9
48126.3,28236.9
48123.8,28231.7
48121.8,28226.2
48120.4,28220.6
48119.6,28214.8
48119.3,28209.1
48119.3,28090.9
48119.6,28085.2
48120.4,28079.4
48121.8,28073.8
48123.8,28068.3
48126.3,28063.1
48129.2,28058.1
48132.7,28053.5
48136.6,28049.2
48140.9,28045.3
48145.5,28041.8
48150.5,28038.9
48155.7,28036.4
48161.2,28034.4
48166.8,28033
48172.6,28032.2
48178.3,28031.9
48749.2,28031.9
Z" /> 
<path style="fill:#FFFFFF; fill-opacity:1.0; 
stroke:#FFFFFF; stroke-width:0; stroke-opacity:1; 
stroke-linecap:round; stroke-linejoin:round;fill-rule:evenodd;"
d="M 46727.4,28032.2
46733.2,28033
46738.8,28034.4
46744.3,28036.4
46749.5,28038.9
46754.5,28041.8
46759.1,28045.3
46763.4,28049.2
46767.3,28053.5
46770.8,28058.1
46773.7,28063.1
46776.2,28068.3
46778.2,28073.8
46779.6,28079.4
46780.4,28085.2
46780.7,28090.9
46780.7,28209.1
46780.4,28214.8
46779.6,28220.6
46778.2,28226.2
46776.2,28231.7
46773.7,28236.9
46770.8,28241.9
46767.3,28246.5
46763.4,28250.8
46759.1,28254.7
46754.5,28258.2
46749.5,28261.1
46744.3,28263.6
46738.8,28265.6
46733.2,28267
46727.4,28267.8
46721.7,28268.1
46150.8,28268.1
46145,28267.8
46139.3,28267
46133.6,28265.6
46128.2,28263.6
46122.9,28261.1
46118,28258.2
46113.3,28254.7
46109,28250.8
46105.1,28246.5
46101.7,28241.9
46098.7,28236.9
46096.2,28231.7
46094.3,28226.2
46092.9,28220.6
46092,28214.8
46091.7,28209.1
46091.7,28090.9
46092,28085.2
46092.9,28079.4
46094.3,28073.8
46096.2,28068.3
46098.7,28063.1
46101.7,28058.1
46105.1,28053.5
46109,28049.2
46113.3,28045.3
46118,28041.8
46122.9,28038.9
46128.2,28036.4
46133.6,28034.4
46139.3,28033
46145,28032.2
46150.8,28031.9
46721.7,28031.9
Z" /> 
<path style="fill:#FFFFFF; fill-opacity:1.0; 
stroke:#FFFFFF; stroke-width:0; stroke-opacity:1; 
stroke-linecap:round; stroke-linejoin:round;fill-rule:evenodd;"
d="M 46727.4,27532.2
46733.2,27533
46738.8,27534.4
46744.3,27536.4
46749.5,27538.9
46754.5,27541.8
46759.1,27545.3
46763.4,27549.2
46767.3,27553.5
46770.8,27558.1
46773.7,27563.1
46776.2,27568.3
46778.2,27573.8
46779.6,27579.4
46780.4,27585.2
46780.7,27590.9
46780.7,27709.1
46780.4,27714.8
46779.6,27720.6
46778.2,27726.2
46776.2,27731.7
46773.7,27736.9
46770.8,27741.9
46767.3,27746.5
46763.4,27750.8
46759.1,27754.7
46754.5,27758.2
46749.5,27761.1
46744.3,27763.6
46738.8,27765.6
46733.2,27767
46727.4,27767.8
46721.7,27768.1
46150.8,27768.1
46145,27767.8
46139.3,27767
46133.6,27765.6
46128.2,27763.6
46122.9,27761.1
46118,27758.2
46113.3,27754.7
46109,27750.8
46105.1,27746.5
46101.7,27741.9
46098.7,27736.9
46096.2,27731.7
46094.3,27726.2
46092.9,27720.6
46092,27714.8
46091.7,27709.1
46091.7,27590.9
46092,27585.2
46092.9,27579.4
46094.3,27573.8
46096.2,27568.3
46098.7,27563.1
46101.7,27558.1
46105.1,27553.5
46109,27549.2
46113.3,27545.3
46118,27541.8
46122.9,27538.9
46128.2,27536.4
46133.6,27534.4
46139.3,27533
46145,27532.2
46150.8,27531.9
46721.7,27531.9
Z" /> 
<path style="fill:#FFFFFF; fill-opacity:1.0; 
stroke:#FFFFFF; stroke-width:0; stroke-opacity:1; 
stroke-linecap:round; stroke-linejoin:round;fill-rule:evenodd;"
d="M 46727.4,27032.2
46733.2,27033
46738.8,27034.4
46744.3,27036.4
46749.5,27038.9
46754.5,27041.8
46759.1,27045.3
46763.4,27049.2
46767.3,27053.5
46770.8,27058.1
46773.7,27063.1
46776.2,27068.3
46778.2,27073.8
46779.6,27079.4
46780.4,27085.2
46780.7,27090.9
46780.7,27209.1
46780.4,27214.8
46779.6,27220.6
46778.2,27226.2
46776.2,27231.7
46773.7,27236.9
46770.8,27241.9
46767.3,27246.5
46763.4,27250.8
46759.1,27254.7
46754.5,27258.2
46749.5,27261.1
46744.3,27263.6
46738.8,27265.6
46733.2,27267
46727.4,27267.8
46721.7,27268.1
46150.8,27268.1
46145,27267.8
46139.3,27267
46133.6,27265.6
46128.2,27263.6
46122.9,27261.1
46118,27258.2
46113.3,27254.7
46109,27250.8
46105.1,27246.5
46101.7,27241.9
46098.7,27236.9
46096.2,27231.7
46094.3,27226.2
46092.9,27220.6
46092,27214.8
46091.7,27209.1
46091.7,27090.9
46092,27085.2
46092.9,27079.4
46094.3,27073.8
46096.2,27068.3
46098.7,27063.1
46101.7,27058.1
46105.1,27053.5
46109,27049.2
46113.3,27045.3
46118,27041.8
46122.9,27038.9
46128.2,27036.4
46133.6,27034.4
46139.3,27033
46145,27032.2
46150.8,27031.9
46721.7,27031.9
Z" /> 
<path style="fill:#FFFFFF; fill-opacity:1.0; 
stroke:#FFFFFF; stroke-width:0; stroke-opacity:1; 
stroke-linecap:round; stroke-linejoin:round;fill-rule:evenodd;"
d="M 46727.4,26532.2
46733.2,26533
46738.8,26534.4
46744.3,26536.4
46749.5,26538.9
46754.5,26541.8
46759.1,26545.3
46763.4,26549.2
46767.3,26553.5
46770.8,26558.1
46773.7,26563.1
46776.2,26568.3
46778.2,26573.8
46779.6,26579.4
46780.4,26585.2
46780.7,26590.9
46780.7,26709.1
46780.4,26714.8
46779.6,26720.6
46778.2,26726.2
46776.2,26731.7
46773.7,26736.9
46770.8,26741.9
46767.3,26746.5
46763.4,26750.8
46759.1,26754.7
46754.5,26758.2
46749.5,26761.1
46744.3,26763.6
46738.8,26765.6
46733.2,26767
46727.4,26767.8
46721.7,26768.1
46150.8,26768.1
46145,26767.8
46139.3,26767
46133.6,26765.6
46128.2,26763.6
46122.9,26761.1
46118,26758.2
46113.3,26754.7
46109,26750.8
46105.1,26746.5
46101.7,26741.9
46098.7,26736.9
46096.2,26731.7
46094.3,26726.2
46092.9,26720.6
46092,26714.8
46091.7,26709.1
46091.7,26590.9
46092,26585.2
46092.9,26579.4
46094.3,26573.8
46096.2,26568.3
46098.7,26563.1
46101.7,26558.1
46105.1,26553.5
46109,26549.2
46113.3,26545.3
46118,26541.8
46122.9,26538.9
46128.2,26536.4
46133.6,26534.4
46139.3,26533
46145,26532.2
46150.8,26531.9
46721.7,26531.9
Z" /> 
</g>
<g >
</g>
<g style="fill:#FFFFFF; fill-opacity:1.0; 
stroke:#FFFFFF; stroke-width:0; stroke-opacity:1; 
stroke-linecap:round; stroke-linejoin:round;">
<path style="fill:#FFFFFF; fill-opacity:1.0; 
stroke:#FFFFFF; stroke-width:0; stroke-opacity:1; 
stroke-linecap:round; stroke-linejoin:round;fill-rule:evenodd;"
d="M 47752.8,31626
46847.2,31626
46847.2,30248
47752.8,30248
Z" /> 
<path style="fill:#FFFFFF; fill-opacity:1.0; 
stroke:#FFFFFF; stroke-width:0; stroke-opacity:1; 
stroke-linecap:round; stroke-linejoin:round;fill-rule:evenodd;"
d="M 47752.8,33752
46847.2,33752
46847.2,32374
47752.8,32374
Z" /> 
</g>
<g >
</g>
<g style="fill:#FFFFFF; fill-opacity:1.0; 
stroke:#FFFFFF; stroke-width:0; stroke-opacity:1; 
stroke-linecap:round; stroke-linejoin:round;">
<path style="fill:#FFFFFF; fill-opacity:1.0; 
stroke:#FFFFFF; stroke-width:0; stroke-opacity:1; 
stroke-linecap:round; stroke-linejoin:round;fill-rule:evenodd;"
d="M 50952.8,31626
50047.2,31626
50047.2,30248
50952.8,30248
Z" /> 
<path style="fill:#FFFFFF; fill-opacity:1.0; 
stroke:#FFFFFF; stroke-width:0; stroke-opacity:1; 
stroke-linecap:round; stroke-linejoin:round;fill-rule:evenodd;"
d="M 50952.8,33752
50047.2,33752
50047.2,32374
50952.8,32374
Z" /> 
</g>
<g >
</g>
<g style="fill:#FFFFFF; fill-opacity:1.0; 
stroke:#FFFFFF; stroke-width:0; stroke-opacity:1; 
stroke-linecap:round; stroke-linejoin:round;">
<path style="fill:#FFFFFF; fill-opacity:1.0; 
stroke:#FFFFFF; stroke-width:0; stroke-opacity:1; 
stroke-linecap:round; stroke-linejoin:round;fill-rule:evenodd;"
d="M 46039,29327.6
46048.3,29329
46057.5,29331.3
46066.3,29334.5
46074.9,29338.5
46082.9,29343.3
46090.5,29348.9
46097.5,29355.3
46103.8,29362.3
46109.4,29369.8
46114.3,29377.9
46118.3,29386.4
46121.5,29395.3
46123.7,29404.4
46125.1,29413.7
46125.6,29423.1
46125.6,29615.1
46125.1,29624.5
46123.7,29633.8
46121.5,29642.9
46118.3,29651.8
46114.3,29660.3
46109.4,29668.4
46103.8,29675.9
46097.5,29682.9
46090.5,29689.2
46082.9,29694.9
46074.9,29699.7
46066.3,29703.7
46057.5,29706.9
46048.3,29709.2
46039,29710.6
46029.6,29711
45670.4,29711
45661,29710.6
45651.7,29709.2
45642.5,29706.9
45633.7,29703.7
45625.1,29699.7
45617.1,29694.9
45609.5,29689.2
45602.5,29682.9
45596.2,29675.9
45590.6,29668.4
45585.7,29660.3
45581.7,29651.8
45578.5,29642.9
45576.3,29633.8
45574.9,29624.5
45574.4,29615.1
45574.4,29423.1
45574.9,29413.7
45576.3,29404.4
45578.5,29395.3
45581.7,29386.4
45585.7,29377.9
45590.6,29369.8
45596.2,29362.3
45602.5,29355.3
45609.5,29348.9
45617.1,29343.3
45625.1,29338.5
45633.7,29334.5
45642.5,29331.3
45651.7,29329
45661,29327.6
45670.4,29327.2
46029.6,29327.2
Z" /> 
<path style="fill:#FFFFFF; fill-opacity:1.0; 
stroke:#FFFFFF; stroke-width:0; stroke-opacity:1; 
stroke-linecap:round; stroke-linejoin:round;fill-rule:evenodd;"
d="M 46039,28589.4
46048.3,28590.8
46057.5,28593.1
46066.3,28596.3
46074.9,28600.3
46082.9,28605.1
46090.5,28610.8
46097.5,28617.1
46103.8,28624.1
46109.4,28631.6
46114.3,28639.7
46118.3,28648.2
46121.5,28657.1
46123.7,28666.2
46125.1,28675.5
46125.6,28684.9
46125.6,28876.9
46125.1,28886.3
46123.7,28895.6
46121.5,28904.7
46118.3,28913.6
46114.3,28922.1
46109.4,28930.2
46103.8,28937.7
46097.5,28944.7
46090.5,28951.1
46082.9,28956.7
46074.9,28961.5
46066.3,28965.5
46057.5,28968.7
46048.3,28971
46039,28972.4
46029.6,28972.8
45670.4,28972.8
45661,28972.4
45651.7,28971
45642.5,28968.7
45633.7,28965.5
45625.1,28961.5
45617.1,28956.7
45609.5,28951.1
45602.5,28944.7
45596.2,28937.7
45590.6,28930.2
45585.7,28922.1
45581.7,28913.6
45578.5,28904.7
45576.3,28895.6
45574.9,28886.3
45574.4,28876.9
45574.4,28684.9
45574.9,28675.5
45576.3,28666.2
45578.5,28657.1
45581.7,28648.2
45585.7,28639.7
45590.6,28631.6
45596.2,28624.1
45602.5,28617.1
45609.5,28610.8
45617.1,28605.1
45625.1,28600.3
45633.7,28596.3
45642.5,28593.1
45651.7,28590.8
45661,28589.4
45670.4,28589
46029.6,28589
Z" /> 
</g>
<g >
</g>
<g style="fill:#FFFFFF; fill-opacity:1.0; 
stroke:#FFFFFF; stroke-width:0; stroke-opacity:1; 
stroke-linecap:round; stroke-linejoin:round;">
<path style="fill:#FFFFFF; fill-opacity:1.0; 
stroke:#FFFFFF; stroke-width:0; stroke-opacity:1; 
stroke-linecap:round; stroke-linejoin:round;fill-rule:evenodd;"
d="M 45739,27977.6
45748.3,27979
45757.5,27981.3
45766.3,27984.5
45774.9,27988.5
45782.9,27993.3
45790.5,27998.9
45797.5,28005.3
45803.8,28012.3
45809.4,28019.8
45814.3,28027.9
45818.3,28036.4
45821.5,28045.3
45823.7,28054.4
45825.1,28063.7
45825.6,28073.1
45825.6,28265.1
45825.1,28274.5
45823.7,28283.8
45821.5,28292.9
45818.3,28301.8
45814.3,28310.3
45809.4,28318.4
45803.8,28325.9
45797.5,28332.9
45790.5,28339.2
45782.9,28344.9
45774.9,28349.7
45766.3,28353.7
45757.5,28356.9
45748.3,28359.2
45739,28360.6
45729.6,28361
45370.4,28361
45361,28360.6
45351.7,28359.2
45342.5,28356.9
45333.7,28353.7
45325.1,28349.7
45317.1,28344.9
45309.5,28339.2
45302.5,28332.9
45296.2,28325.9
45290.6,28318.4
45285.7,28310.3
45281.7,28301.8
45278.5,28292.9
45276.3,28283.8
45274.9,28274.5
45274.4,28265.1
45274.4,28073.1
45274.9,28063.7
45276.3,28054.4
45278.5,28045.3
45281.7,28036.4
45285.7,28027.9
45290.6,28019.8
45296.2,28012.3
45302.5,28005.3
45309.5,27998.9
45317.1,27993.3
45325.1,27988.5
45333.7,27984.5
45342.5,27981.3
45351.7,27979
45361,27977.6
45370.4,27977.2
45729.6,27977.2
Z" /> 
<path style="fill:#FFFFFF; fill-opacity:1.0; 
stroke:#FFFFFF; stroke-width:0; stroke-opacity:1; 
stroke-linecap:round; stroke-linejoin:round;fill-rule:evenodd;"
d="M 45739,27239.4
45748.3,27240.8
45757.5,27243.1
45766.3,27246.3
45774.9,27250.3
45782.9,27255.1
45790.5,27260.8
45797.5,27267.1
45803.8,27274.1
45809.4,27281.6
45814.3,27289.7
45818.3,27298.2
45821.5,27307.1
45823.7,27316.2
45825.1,27325.5
45825.6,27334.9
45825.6,27526.9
45825.1,27536.3
45823.7,27545.6
45821.5,27554.7
45818.3,27563.6
45814.3,27572.1
45809.4,27580.2
45803.8,27587.7
45797.5,27594.7
45790.5,27601.1
45782.9,27606.7
45774.9,27611.5
45766.3,27615.5
45757.5,27618.7
45748.3,27621
45739,27622.4
45729.6,27622.8
45370.4,27622.8
45361,27622.4
45351.7,27621
45342.5,27618.7
45333.7,27615.5
45325.1,27611.5
45317.1,27606.7
45309.5,27601.1
45302.5,27594.7
45296.2,27587.7
45290.6,27580.2
45285.7,27572.1
45281.7,27563.6
45278.5,27554.7
45276.3,27545.6
45274.9,27536.3
45274.4,27526.9
45274.4,27334.9
45274.9,27325.5
45276.3,27316.2
45278.5,27307.1
45281.7,27298.2
45285.7,27289.7
45290.6,27281.6
45296.2,27274.1
45302.5,27267.1
45309.5,27260.8
45317.1,27255.1
45325.1,27250.3
45333.7,27246.3
45342.5,27243.1
45351.7,27240.8
45361,27239.4
45370.4,27239
45729.6,27239
Z" /> 
</g>
<g >
</g>
<g style="fill:#FFFFFF; fill-opacity:1.0; 
stroke:#FFFFFF; stroke-width:0; stroke-opacity:1; 
stroke-linecap:round; stroke-linejoin:round;">
<path style="fill:#FFFFFF; fill-opacity:1.0; 
stroke:#FFFFFF; stroke-width:0; stroke-opacity:1; 
stroke-linecap:round; stroke-linejoin:round;fill-rule:evenodd;"
d="M 46839,29327.6
46848.3,29329
46857.5,29331.3
46866.3,29334.5
46874.9,29338.5
46882.9,29343.3
46890.5,29348.9
46897.5,29355.3
46903.8,29362.3
46909.4,29369.8
46914.3,29377.9
46918.3,29386.4
46921.5,29395.3
46923.7,29404.4
46925.1,29413.7
46925.6,29423.1
46925.6,29615.1
46925.1,29624.5
46923.7,29633.8
46921.5,29642.9
46918.3,29651.8
46914.3,29660.3
46909.4,29668.4
46903.8,29675.9
46897.5,29682.9
46890.5,29689.2
46882.9,29694.9
46874.9,29699.7
46866.3,29703.7
46857.5,29706.9
46848.3,29709.2
46839,29710.6
46829.6,29711
46470.4,29711
46461,29710.6
46451.7,29709.2
46442.5,29706.9
46433.7,29703.7
46425.1,29699.7
46417.1,29694.9
46409.5,29689.2
46402.5,29682.9
46396.2,29675.9
46390.6,29668.4
46385.7,29660.3
46381.7,29651.8
46378.5,29642.9
46376.3,29633.8
46374.9,29624.5
46374.4,29615.1
46374.4,29423.1
46374.9,29413.7
46376.3,29404.4
46378.5,29395.3
46381.7,29386.4
46385.7,29377.9
46390.6,29369.8
46396.2,29362.3
46402.5,29355.3
46409.5,29348.9
46417.1,29343.3
46425.1,29338.5
46433.7,29334.5
46442.5,29331.3
46451.7,29329
46461,29327.6
46470.4,29327.2
46829.6,29327.2
Z" /> 
<path style="fill:#FFFFFF; fill-opacity:1.0; 
stroke:#FFFFFF; stroke-width:0; stroke-opacity:1; 
stroke-linecap:round; stroke-linejoin:round;fill-rule:evenodd;"
d="M 46839,28589.4
46848.3,28590.8
46857.5,28593.1
46866.3,28596.3
46874.9,28600.3
46882.9,28605.1
46890.5,28610.8
46897.5,28617.1
46903.8,28624.1
46909.4,28631.6
46914.3,28639.7
46918.3,28648.2
46921.5,28657.1
46923.7,28666.2
46925.1,28675.5
46925.6,28684.9
46925.6,28876.9
46925.1,28886.3
46923.7,28895.6
46921.5,28904.7
46918.3,28913.6
46914.3,28922.1
46909.4,28930.2
46903.8,28937.7
46897.5,28944.7
46890.5,28951.1
46882.9,28956.7
46874.9,28961.5
46866.3,28965.5
46857.5,28968.7
46848.3,28971
46839,28972.4
46829.6,28972.8
46470.4,28972.8
46461,28972.4
46451.7,28971
46442.5,28968.7
46433.7,28965.5
46425.1,28961.5
46417.1,28956.7
46409.5,28951.1
46402.5,28944.7
46396.2,28937.7
46390.6,28930.2
46385.7,28922.1
46381.7,28913.6
46378.5,28904.7
46376.3,28895.6
46374.9,28886.3
46374.4,28876.9
46374.4,28684.9
46374.9,28675.5
46376.3,28666.2
46378.5,28657.1
46381.7,28648.2
46385.7,28639.7
46390.6,28631.6
46396.2,28624.1
46402.5,28617.1
46409.5,28610.8
46417.1,28605.1
46425.1,28600.3
46433.7,28596.3
46442.5,28593.1
46451.7,28590.8
46461,28589.4
46470.4,28589
46829.6,28589
Z" /> 
</g>
<g >
</g>
<g style="fill:#FFFFFF; fill-opacity:1.0; 
stroke:#FFFFFF; stroke-width:0; stroke-opacity:1; 
stroke-linecap:round; stroke-linejoin:round;">
<path style="fill:#FFFFFF; fill-opacity:1.0; 
stroke:#FFFFFF; stroke-width:0; stroke-opacity:1; 
stroke-linecap:round; stroke-linejoin:round;fill-rule:evenodd;"
d="M 50933.1,27035.4
50066.9,27035.4
50066.9,26444.9
50933.1,26444.9
Z" /> 
<path style="fill:#FFFFFF; fill-opacity:1.0; 
stroke:#FFFFFF; stroke-width:0; stroke-opacity:1; 
stroke-linecap:round; stroke-linejoin:round;fill-rule:evenodd;"
d="M 50933.1,29555.1
50066.9,29555.1
50066.9,28964.6
50933.1,28964.6
Z" /> 
</g>
<g >
</g>
<g style="fill:#FFFFFF; fill-opacity:1.0; 
stroke:#FFFFFF; stroke-width:0; stroke-opacity:1; 
stroke-linecap:round; stroke-linejoin:round;">
<path style="fill:#FFFFFF; fill-opacity:1.0; 
stroke:#FFFFFF; stroke-width:0; stroke-opacity:1; 
stroke-linecap:round; stroke-linejoin:round;fill-rule:evenodd;"
d="M 54902.8,27826
53997.2,27826
53997.2,26448
54902.8,26448
Z" /> 
<path style="fill:#FFFFFF; fill-opacity:1.0; 
stroke:#FFFFFF; stroke-width:0; stroke-opacity:1; 
stroke-linecap:round; stroke-linejoin:round;fill-rule:evenodd;"
d="M 54902.8,29952
53997.2,29952
53997.2,28574
54902.8,28574
Z" /> 
</g>
<g >
</g>
<g style="fill:#FFFFFF; fill-opacity:1.0; 
stroke:#FFFFFF; stroke-width:0; stroke-opacity:1; 
stroke-linecap:round; stroke-linejoin:round;">
<path style="fill:#FFFFFF; fill-opacity:1.0; 
stroke:#FFFFFF; stroke-width:0; stroke-opacity:1; 
stroke-linecap:round; stroke-linejoin:round;fill-rule:evenodd;"
d="M 53154.3,27404.7
52445.7,27404.7
52445.7,26420.5
53154.3,26420.5
Z" /> 
<path style="fill:#FFFFFF; fill-opacity:1.0; 
stroke:#FFFFFF; stroke-width:0; stroke-opacity:1; 
stroke-linecap:round; stroke-linejoin:round;fill-rule:evenodd;"
d="M 53154.3,28979.5
52445.7,28979.5
52445.7,27995.3
53154.3,27995.3
Z" /> 
</g>
<g >
</g>
<g style="fill:#FFFFFF; fill-opacity:1.0; 
stroke:#FFFFFF; stroke-width:0; stroke-opacity:1; 
stroke-linecap:round; stroke-linejoin:round;">
<path style="fill:#FFFFFF; fill-opacity:1.0; 
stroke:#FFFFFF; stroke-width:0; stroke-opacity:1; 
stroke-linecap:round; stroke-linejoin:round;fill-rule:evenodd;"
d="M 53089,29789.4
53098.3,29790.8
53107.5,29793.1
53116.3,29796.3
53124.9,29800.3
53132.9,29805.1
53140.5,29810.8
53147.5,29817.1
53153.8,29824.1
53159.4,29831.6
53164.3,29839.7
53168.3,29848.2
53171.5,29857.1
53173.7,29866.2
53175.1,29875.5
53175.6,29884.9
53175.6,30076.9
53175.1,30086.3
53173.7,30095.6
53171.5,30104.7
53168.3,30113.6
53164.3,30122.1
53159.4,30130.2
53153.8,30137.7
53147.5,30144.7
53140.5,30151.1
53132.9,30156.7
53124.9,30161.5
53116.3,30165.5
53107.5,30168.7
53098.3,30171
53089,30172.4
53079.6,30172.8
52720.4,30172.8
52711,30172.4
52701.7,30171
52692.5,30168.7
52683.7,30165.5
52675.1,30161.5
52667.1,30156.7
52659.5,30151.1
52652.5,30144.7
52646.2,30137.7
52640.6,30130.2
52635.7,30122.1
52631.7,30113.6
52628.5,30104.7
52626.3,30095.6
52624.9,30086.3
52624.4,30076.9
52624.4,29884.9
52624.9,29875.5
52626.3,29866.2
52628.5,29857.1
52631.7,29848.2
52635.7,29839.7
52640.6,29831.6
52646.2,29824.1
52652.5,29817.1
52659.5,29810.8
52667.1,29805.1
52675.1,29800.3
52683.7,29796.3
52692.5,29793.1
52701.7,29790.8
52711,29789.4
52720.4,29789
53079.6,29789
Z" /> 
<path style="fill:#FFFFFF; fill-opacity:1.0; 
stroke:#FFFFFF; stroke-width:0; stroke-opacity:1; 
stroke-linecap:round; stroke-linejoin:round;fill-rule:evenodd;"
d="M 53089,30527.6
53098.3,30529
53107.5,30531.3
53116.3,30534.5
53124.9,30538.5
53132.9,30543.3
53140.5,30548.9
53147.5,30555.3
53153.8,30562.3
53159.4,30569.8
53164.3,30577.9
53168.3,30586.4
53171.5,30595.3
53173.7,30604.4
53175.1,30613.7
53175.6,30623.1
53175.6,30815.1
53175.1,30824.5
53173.7,30833.8
53171.5,30842.9
53168.3,30851.8
53164.3,30860.3
53159.4,30868.4
53153.8,30875.9
53147.5,30882.9
53140.5,30889.2
53132.9,30894.9
53124.9,30899.7
53116.3,30903.7
53107.5,30906.9
53098.3,30909.2
53089,30910.6
53079.6,30911
52720.4,30911
52711,30910.6
52701.7,30909.2
52692.5,30906.9
52683.7,30903.7
52675.1,30899.7
52667.1,30894.9
52659.5,30889.2
52652.5,30882.9
52646.2,30875.9
52640.6,30868.4
52635.7,30860.3
52631.7,30851.8
52628.5,30842.9
52626.3,30833.8
52624.9,30824.5
52624.4,30815.1
52624.4,30623.1
52624.9,30613.7
52626.3,30604.4
52628.5,30595.3
52631.7,30586.4
52635.7,30577.9
52640.6,30569.8
52646.2,30562.3
52652.5,30555.3
52659.5,30548.9
52667.1,30543.3
52675.1,30538.5
52683.7,30534.5
52692.5,30531.3
52701.7,30529
52711,30527.6
52720.4,30527.2
53079.6,30527.2
Z" /> 
</g>
<g >
</g>
<g style="fill:#FFFFFF; fill-opacity:1.0; 
stroke:#FFFFFF; stroke-width:0; stroke-opacity:1; 
stroke-linecap:round; stroke-linejoin:round;">
<path style="fill:#FFFFFF; fill-opacity:1.0; 
stroke:#FFFFFF; stroke-width:0; stroke-opacity:1; 
stroke-linecap:round; stroke-linejoin:round;fill-rule:evenodd;"
d="M 47939,29327.6
47948.3,29329
47957.5,29331.3
47966.3,29334.5
47974.9,29338.5
47982.9,29343.3
47990.5,29348.9
47997.5,29355.3
48003.8,29362.3
48009.4,29369.8
48014.3,29377.9
48018.3,29386.4
48021.5,29395.3
48023.7,29404.4
48025.1,29413.7
48025.6,29423.1
48025.6,29615.1
48025.1,29624.5
48023.7,29633.8
48021.5,29642.9
48018.3,29651.8
48014.3,29660.3
48009.4,29668.4
48003.8,29675.9
47997.5,29682.9
47990.5,29689.2
47982.9,29694.9
47974.9,29699.7
47966.3,29703.7
47957.5,29706.9
47948.3,29709.2
47939,29710.6
47929.6,29711
47570.4,29711
47561,29710.6
47551.7,29709.2
47542.5,29706.9
47533.7,29703.7
47525.1,29699.7
47517.1,29694.9
47509.5,29689.2
47502.5,29682.9
47496.2,29675.9
47490.6,29668.4
47485.7,29660.3
47481.7,29651.8
47478.5,29642.9
47476.3,29633.8
47474.9,29624.5
47474.4,29615.1
47474.4,29423.1
47474.9,29413.7
47476.3,29404.4
47478.5,29395.3
47481.7,29386.4
47485.7,29377.9
47490.6,29369.8
47496.2,29362.3
47502.5,29355.3
47509.5,29348.9
47517.1,29343.3
47525.1,29338.5
47533.7,29334.5
47542.5,29331.3
47551.7,29329
47561,29327.6
47570.4,29327.2
47929.6,29327.2
Z" /> 
<path style="fill:#FFFFFF; fill-opacity:1.0; 
stroke:#FFFFFF; stroke-width:0; stroke-opacity:1; 
stroke-linecap:round; stroke-linejoin:round;fill-rule:evenodd;"
d="M 47939,28589.4
47948.3,28590.8
47957.5,28593.1
47966.3,28596.3
47974.9,28600.3
47982.9,28605.1
47990.5,28610.8
47997.5,28617.1
48003.8,28624.1
48009.4,28631.6
48014.3,28639.7
48018.3,28648.2
48021.5,28657.1
48023.7,28666.2
48025.1,28675.5
48025.6,28684.9
48025.6,28876.9
48025.1,28886.3
48023.7,28895.6
48021.5,28904.7
48018.3,28913.6
48014.3,28922.1
48009.4,28930.2
48003.8,28937.7
47997.5,28944.7
47990.5,28951.1
47982.9,28956.7
47974.9,28961.5
47966.3,28965.5
47957.5,28968.7
47948.3,28971
47939,28972.4
47929.6,28972.8
47570.4,28972.8
47561,28972.4
47551.7,28971
47542.5,28968.7
47533.7,28965.5
47525.1,28961.5
47517.1,28956.7
47509.5,28951.1
47502.5,28944.7
47496.2,28937.7
47490.6,28930.2
47485.7,28922.1
47481.7,28913.6
47478.5,28904.7
47476.3,28895.6
47474.9,28886.3
47474.4,28876.9
47474.4,28684.9
47474.9,28675.5
47476.3,28666.2
47478.5,28657.1
47481.7,28648.2
47485.7,28639.7
47490.6,28631.6
47496.2,28624.1
47502.5,28617.1
47509.5,28610.8
47517.1,28605.1
47525.1,28600.3
47533.7,28596.3
47542.5,28593.1
47551.7,28590.8
47561,28589.4
47570.4,28589
47929.6,28589
Z" /> 
</g>
<g >
</g>
<g style="fill:#FFFFFF; fill-opacity:1.0; 
stroke:#FFFFFF; stroke-width:0; stroke-opacity:1; 
stroke-linecap:round; stroke-linejoin:round;">
<path style="fill:#FFFFFF; fill-opacity:1.0; 
stroke:#FFFFFF; stroke-width:0; stroke-opacity:1; 
stroke-linecap:round; stroke-linejoin:round;fill-rule:evenodd;"
d="M 52289,29789.4
52298.3,29790.8
52307.5,29793.1
52316.3,29796.3
52324.9,29800.3
52332.9,29805.1
52340.5,29810.8
52347.5,29817.1
52353.8,29824.1
52359.4,29831.6
52364.3,29839.7
52368.3,29848.2
52371.5,29857.1
52373.7,29866.2
52375.1,29875.5
52375.6,29884.9
52375.6,30076.9
52375.1,30086.3
52373.7,30095.6
52371.5,30104.7
52368.3,30113.6
52364.3,30122.1
52359.4,30130.2
52353.8,30137.7
52347.5,30144.7
52340.5,30151.1
52332.9,30156.7
52324.9,30161.5
52316.3,30165.5
52307.5,30168.7
52298.3,30171
52289,30172.4
52279.6,30172.8
51920.4,30172.8
51911,30172.4
51901.7,30171
51892.5,30168.7
51883.7,30165.5
51875.1,30161.5
51867.1,30156.7
51859.5,30151.1
51852.5,30144.7
51846.2,30137.7
51840.6,30130.2
51835.7,30122.1
51831.7,30113.6
51828.5,30104.7
51826.3,30095.6
51824.9,30086.3
51824.4,30076.9
51824.4,29884.9
51824.9,29875.5
51826.3,29866.2
51828.5,29857.1
51831.7,29848.2
51835.7,29839.7
51840.6,29831.6
51846.2,29824.1
51852.5,29817.1
51859.5,29810.8
51867.1,29805.1
51875.1,29800.3
51883.7,29796.3
51892.5,29793.1
51901.7,29790.8
51911,29789.4
51920.4,29789
52279.6,29789
Z" /> 
<path style="fill:#FFFFFF; fill-opacity:1.0; 
stroke:#FFFFFF; stroke-width:0; stroke-opacity:1; 
stroke-linecap:round; stroke-linejoin:round;fill-rule:evenodd;"
d="M 52289,30527.6
52298.3,30529
52307.5,30531.3
52316.3,30534.5
52324.9,30538.5
52332.9,30543.3
52340.5,30548.9
52347.5,30555.3
52353.8,30562.3
52359.4,30569.8
52364.3,30577.9
52368.3,30586.4
52371.5,30595.3
52373.7,30604.4
52375.1,30613.7
52375.6,30623.1
52375.6,30815.1
52375.1,30824.5
52373.7,30833.8
52371.5,30842.9
52368.3,30851.8
52364.3,30860.3
52359.4,30868.4
52353.8,30875.9
52347.5,30882.9
52340.5,30889.2
52332.9,30894.9
52324.9,30899.7
52316.3,30903.7
52307.5,30906.9
52298.3,30909.2
52289,30910.6
52279.6,30911
51920.4,30911
51911,30910.6
51901.7,30909.2
51892.5,30906.9
51883.7,30903.7
51875.1,30899.7
51867.1,30894.9
51859.5,30889.2
51852.5,30882.9
51846.2,30875.9
51840.6,30868.4
51835.7,30860.3
51831.7,30851.8
51828.5,30842.9
51826.3,30833.8
51824.9,30824.5
51824.4,30815.1
51824.4,30623.1
51824.9,30613.7
51826.3,30604.4
51828.5,30595.3
51831.7,30586.4
51835.7,30577.9
51840.6,30569.8
51846.2,30562.3
51852.5,30555.3
51859.5,30548.9
51867.1,30543.3
51875.1,30538.5
51883.7,30534.5
51892.5,30531.3
51901.7,30529
51911,30527.6
51920.4,30527.2
52279.6,30527.2
Z" /> 
</g>
<g >
</g>
<g style="fill:#FFFFFF; fill-opacity:1.0; 
stroke:#FFFFFF; stroke-width:0; stroke-opacity:1; 
stroke-linecap:round; stroke-linejoin:round;">
<path style="fill:#FFFFFF; fill-opacity:1.0; 
stroke:#FFFFFF; stroke-width:0; stroke-opacity:1; 
stroke-linecap:round; stroke-linejoin:round;fill-rule:evenodd;"
d="M 54902.8,31626
53997.2,31626
53997.2,30248
54902.8,30248
Z" /> 
<path style="fill:#FFFFFF; fill-opacity:1.0; 
stroke:#FFFFFF; stroke-width:0; stroke-opacity:1; 
stroke-linecap:round; stroke-linejoin:round;fill-rule:evenodd;"
d="M 54902.8,33752
53997.2,33752
53997.2,32374
54902.8,32374
Z" /> 
</g>
<g >
</g>
<g >
</g>
<g style="fill:#FFFFFF; fill-opacity:1.0; 
stroke:#FFFFFF; stroke-width:0; stroke-opacity:1; 
stroke-linecap:round; stroke-linejoin:round;">
</g>
<g style="fill:#FFFFFF; fill-opacity:1.0; 
stroke:#FFFFFF; stroke-width:393.701; stroke-opacity:1; 
stroke-linecap:round; stroke-linejoin:round;">
</g>
<g style="fill:#FFFFFF; fill-opacity:0.0; 
stroke:#FFFFFF; stroke-width:393.701; stroke-opacity:1; 
stroke-linecap:round; stroke-linejoin:round;">
<path d="M54232 30719
L54450 30937
" />
<path d="M52100 30719
L54232 30719
" />
<path d="M46436 26650
L46436 27075
" />
</g>
<g style="fill:#FFFFFF; fill-opacity:0.0; 
stroke:#FFFFFF; stroke-width:118.11; stroke-opacity:1; 
stroke-linecap:round; stroke-linejoin:round;">
<path d="M46436 27150
L47250 27150
" />
<path d="M47250 27150
L47400 27000
" />
<path d="M47400 27000
L47400 26650
" />
<path d="M46436 27150
L46100 27150
" />
<path d="M46100 27150
L46050 27150
" />
<path d="M46050 27150
L45850 26950
" />
</g>
<g style="fill:#FFFFFF; fill-opacity:0.0; 
stroke:#FFFFFF; stroke-width:393.701; stroke-opacity:1; 
stroke-linecap:round; stroke-linejoin:round;">
<path d="M54450 33062
L50500 33062
" />
<path d="M50630 29980
L50500 29850
" />
<path d="M52100 29980
L50630 29980
" />
<path d="M50500 29850
L50500 29259
" />
<path d="M50500 30937
L50500 29850
" />
</g>
<g style="fill:#FFFFFF; fill-opacity:0.0; 
stroke:#FFFFFF; stroke-width:118.11; stroke-opacity:1; 
stroke-linecap:round; stroke-linejoin:round;">
<path d="M48463 28694
L48550 28780
" />
</g>
<g style="fill:#FFFFFF; fill-opacity:0.0; 
stroke:#FFFFFF; stroke-width:393.701; stroke-opacity:1; 
stroke-linecap:round; stroke-linejoin:round;">
<path d="M50500 28570
L50429 28500
" />
<path d="M50500 29259
L50500 28570
" />
<path d="M48650 28500
L48450 28300
" />
<path d="M50429 28500
L48650 28500
" />
</g>
<g style="fill:#FFFFFF; fill-opacity:0.0; 
stroke:#FFFFFF; stroke-width:118.11; stroke-opacity:1; 
stroke-linecap:round; stroke-linejoin:round;">
<path d="M48450 28300
L48463 28694
" />
<path d="M48463 28150
L48450 28300
" />
</g>
<g style="fill:#FFFFFF; fill-opacity:0.0; 
stroke:#FFFFFF; stroke-width:393.701; stroke-opacity:1; 
stroke-linecap:round; stroke-linejoin:round;">
<path d="M48463 28031
L48463 27728
" />
<path d="M48463 28150
L48463 28031
" />
<path d="M48550 28236
L48463 28150
" />
<path d="M48550 28780
L48550 28236
" />
</g>
<g style="fill:#FFFFFF; fill-opacity:0.0; 
stroke:#FFFFFF; stroke-width:118.11; stroke-opacity:1; 
stroke-linecap:round; stroke-linejoin:round;">
<path d="M47120 30937
L47250 30807
" />
<path d="M47750 28780
L47750 27850
" />
<path d="M47550 27650
L46436 27650
" />
<path d="M47750 27850
L47550 27650
" />
<path d="M47300 30937
L47300 30650
" />
<path d="M47300 30650
L47200 30550
" />
<path d="M47200 30550
L47200 28900
" />
<path d="M47319 28780
L47750 28780
" />
<path d="M47200 28900
L47319 28780
" />
<path d="M47750 28780
L46650 28780
" />
<path d="M47080 28780
L46650 28780
" />
<path d="M47200 28900
L47080 28780
" />
<path d="M45550 27400
L45950 27400
" />
</g>
<g style="fill:#FFFFFF; fill-opacity:0.0; 
stroke:#FFFFFF; stroke-width:98.4252; stroke-opacity:1; 
stroke-linecap:round; stroke-linejoin:round;">
<path d="M47957 27400
L48950 27400
" />
<path d="M45950 27400
L48100 27400
" />
</g>
<g style="fill:#FFFFFF; fill-opacity:0.0; 
stroke:#FFFFFF; stroke-width:393.701; stroke-opacity:1; 
stroke-linecap:round; stroke-linejoin:round;">
<path d="M52900 28587
L52800 28487
" />
<path d="M52962 29262
L52900 29200
" />
<path d="M54450 29262
L52962 29262
" />
<path d="M52900 29200
L52900 28587
" />
<path d="M52900 29980
L52900 29200
" />
</g>
<g style="fill:#FFFFFF; fill-opacity:0.0; 
stroke:#FFFFFF; stroke-width:118.11; stroke-opacity:1; 
stroke-linecap:round; stroke-linejoin:round;">
<path d="M52187 28487
L52800 28487
" />
<path d="M52100 28400
L52187 28487
" />
<path d="M52100 28050
L52100 28400
" />
<path d="M49050 28000
L52050 28000
" />
<path d="M52050 28000
L52100 28050
" />
<path d="M49000 27950
L49050 28000
" />
<path d="M49000 27450
L49000 27950
" />
<path d="M48950 27400
L49000 27450
" />
</g>
<g style="fill:#FFFFFF; fill-opacity:0.0; 
stroke:#FFFFFF; stroke-width:98.4252; stroke-opacity:1; 
stroke-linecap:round; stroke-linejoin:round;">
<path d="M52577 26740
L52800 26962
" />
</g>
<g style="fill:#FFFFFF; fill-opacity:0.0; 
stroke:#FFFFFF; stroke-width:393.701; stroke-opacity:1; 
stroke-linecap:round; stroke-linejoin:round;">
<path d="M48463 26650
L48463 27079
" />
<path d="M48553 26740
L48463 26650
" />
<path d="M50500 26740
L48553 26740
" />
<path d="M52627 26740
L52800 26912
" />
<path d="M50500 26740
L52627 26740
" />
</g>
<g style="fill:#FFFFFF; fill-opacity:0.0; 
stroke:#FFFFFF; stroke-width:118.11; stroke-opacity:1; 
stroke-linecap:round; stroke-linejoin:round;">
<path d="M45569 28150
L45550 28169
" />
<path d="M45850 28780
L45850 28150
" />
<path d="M45850 28150
L45569 28150
" />
<path d="M46436 28150
L45850 28150
" />
<path d="M48550 29519
L47750 29519
" />
</g>
<g >
</g>
<g style="fill:#FFFFFF; fill-opacity:0.0; 
stroke:#FFFFFF; stroke-width:118.11; stroke-opacity:1; 
stroke-linecap:round; stroke-linejoin:round;">
</g>
<g style="fill:#FFFFFF; fill-opacity:1.0; 
stroke:#FFFFFF; stroke-width:100; stroke-opacity:1; 
stroke-linecap:round; stroke-linejoin:round;">
<path style="fill:#FFFFFF; fill-opacity:1.0; 
stroke:#FFFFFF; stroke-width:100; stroke-opacity:1; 
stroke-linecap:round; stroke-linejoin:round;fill-rule:evenodd;"
d="M 55900,34400
44750,34400
44750,33752
46596,33752
46600.9,33801
46615.2,33848.1
46638.4,33891.5
46669.6,33929.6
46707.7,33960.8
46751.1,33984.1
46798.2,33998.4
46847.2,34003.2
47187.5,34002
47250,33939.5
47250,33113
47350,33113
47350,33939.5
47412.5,34002
47752.8,34003.2
47801.8,33998.4
47848.9,33984.1
47892.3,33960.8
47930.4,33929.6
47961.6,33891.5
47984.8,33848.1
47999.1,33801
48004,33752
48002.8,33175.5
47940.3,33113
47350,33113
47250,33113
46659.7,33113
46597.2,33175.5
46596,33752
44750,33752
44750,32374
46596,32374
46597.2,32950.5
46659.7,33013
47250,33013
47250,32186.5
47350,32186.5
47350,33013
47940.3,33013
48002.8,32950.5
48004,32374
49796,32374
49796,33752
49800.9,33801
49815.2,33848.1
49838.4,33891.5
49869.6,33929.6
49907.7,33960.8
49951.1,33984.1
49998.2,33998.4
50047.2,34003.2
50952.8,34003.2
51001.8,33998.4
51048.9,33984.1
51092.3,33960.8
51130.4,33929.6
51161.6,33891.5
51184.8,33848.1
51199.1,33801
51204,33752
51204,33509.8
53746,33509.8
53746,33752
53750.9,33801
53765.2,33848.1
53788.4,33891.5
53819.6,33929.6
53857.7,33960.8
53901.1,33984.1
53948.2,33998.4
53997.2,34003.2
54902.8,34003.2
54951.8,33998.4
54998.9,33984.1
55042.3,33960.8
55080.4,33929.6
55111.6,33891.5
55134.8,33848.1
55149.1,33801
55154,33752
55154,32374
55149.1,32325
55134.8,32277.9
55111.6,32234.5
55080.4,32196.4
55042.3,32165.1
54998.9,32141.9
54951.8,32127.6
54902.8,32122.8
53997.2,32122.8
53948.2,32127.6
53901.1,32141.9
53857.7,32165.1
53819.6,32196.4
53788.4,32234.5
53765.2,32277.9
53750.9,32325
53746,32374
53746,32616.1
51204,32616.1
51204,32374
51199.1,32325
51184.8,32277.9
51161.6,32234.5
51130.4,32196.4
51092.3,32165.1
51048.9,32141.9
51001.8,32127.6
50952.8,32122.8
50047.2,32122.8
49998.2,32127.6
49951.1,32141.9
49907.7,32165.1
49869.6,32196.4
49838.4,32234.5
49815.2,32277.9
49800.9,32325
49796,32374
48004,32374
47999.1,32325
47984.8,32277.9
47961.6,32234.5
47930.4,32196.4
47892.3,32165.1
47848.9,32141.9
47801.8,32127.6
47752.8,32122.8
47412.5,32124
47350,32186.5
47250,32186.5
47187.5,32124
46847.2,32122.8
46798.2,32127.6
46751.1,32141.9
46707.7,32165.1
46669.6,32196.4
46638.4,32234.5
46615.2,32277.9
46600.9,32325
46596,32374
44750,32374
44750,29711
45323.2,29711
45328,29760
45342.3,29807.2
45365.5,29850.6
45396.8,29888.7
45434.8,29919.9
45478.3,29943.1
45525.4,29957.4
45574.4,29962.2
45737.5,29961
45800,29898.5
45800,29569.1
45900,29569.1
45900,29898.5
45962.5,29961
46125.6,29962.2
46174.6,29957.4
46221.7,29943.1
46250,29928
46278.3,29943.1
46325.4,29957.4
46374.4,29962.2
46537.5,29961
46600,29898.5
46600,29569.1
45900,29569.1
45800,29569.1
45386.9,29569.1
45324.4,29631.6
45323.2,29711
44750,29711
44750,27334.9
45023.2,27334.9
45023.2,27526.9
45029.9,27594.6
45049.6,27659.7
45081.7,27719.7
45124.9,27772.4
45158.6,27800
45124.9,27827.6
45081.7,27880.3
45049.6,27940.3
45029.9,28005.4
45023.2,28073.1
45023.2,28265.1
45029.9,28332.8
45049.6,28397.9
45081.7,28457.9
45124.9,28510.5
45177.5,28553.7
45237.5,28585.8
45302.6,28605.6
45332.5,28608.5
45329.9,28617.2
45323.2,28684.9
45323.2,28876.9
45329.9,28944.6
45349.6,29009.7
45381.7,29069.7
45424.9,29122.4
45427.4,29124.4
45396.8,29149.5
45365.5,29187.6
45342.3,29231
45328,29278.2
45323.2,29327.2
45324.4,29406.6
45386.9,29469.1
45800,29469.1
45800,29461.2
45900,29461.2
45900,29469.1
46600,29469.1
46600,29461.2
46700,29461.2
46700,29469.1
46707.9,29469.1
46707.9,29569.1
46700,29569.1
46700,29898.5
46762.5,29961
46890.9,29962
46890.9,29996.8
46847.2,29996.8
46798.2,30001.6
46751.1,30015.9
46707.7,30039.2
46669.6,30070.4
46638.4,30108.5
46615.2,30151.9
46600.9,30199
46596,30248
46596,31626
46600.9,31675
46615.2,31722.1
46638.4,31765.5
46669.6,31803.6
46707.7,31834.9
46751.1,31858.1
46798.2,31872.4
46847.2,31877.2
47752.8,31877.2
47801.8,31872.4
47848.9,31858.1
47892.3,31834.9
47930.4,31803.6
47961.6,31765.5
47984.8,31722.1
47999.1,31675
48004,31626
48004,30248
47999.1,30199
47984.8,30151.9
47961.6,30108.5
47930.4,30070.4
47892.3,30039.2
47848.9,30015.9
47801.8,30001.6
47752.8,29996.8
47509.1,29996.8
47509.1,29956.2
47570.4,29962.2
47929.6,29962.2
47997.4,29955.6
48062.5,29935.8
48122.5,29903.7
48150,29881.2
48177.5,29903.7
48237.5,29935.8
48302.6,29955.6
48370.4,29962.2
48729.6,29962.2
48797.4,29955.6
48862.5,29935.8
48922.5,29903.7
48975.1,29860.5
49018.3,29807.9
49050.4,29747.9
49064.9,29700
49862.4,29700
49889.3,29732.8
49927.4,29764
49970.8,29787.2
50017.9,29801.5
50053.1,29805
50053.1,29828.1
50051,29850
50053.1,29871.9
50053.2,29872
50053.2,29996.8
50047.2,29996.8
49998.2,30001.6
49951.1,30015.9
49907.7,30039.2
49869.6,30070.4
49838.4,30108.5
49815.2,30151.9
49800.9,30199
49796,30248
49796,31626
49800.9,31675
49815.2,31722.1
49838.4,31765.5
49869.6,31803.6
49907.7,31834.9
49951.1,31858.1
49998.2,31872.4
50047.2,31877.2
50952.8,31877.2
51001.8,31872.4
51048.9,31858.1
51092.3,31834.9
51130.4,31803.6
51161.6,31765.5
51184.8,31722.1
51199.1,31675
51204,31626
53746,31626
53750.9,31675
53765.2,31722.1
53788.4,31765.5
53819.6,31803.6
53857.7,31834.9
53901.1,31858.1
53948.2,31872.4
53997.2,31877.2
54337.5,31876
54400,31813.5
54400,30987
54500,30987
54500,31813.5
54562.5,31876
54902.8,31877.2
54951.8,31872.4
54998.9,31858.1
55042.3,31834.9
55080.4,31803.6
55111.6,31765.5
55134.8,31722.1
55149.1,31675
55154,31626
55152.8,31049.5
55090.3,30987
54500,30987
54400,30987
53809.7,30987
53747.2,31049.5
53746,31626
51204,31626
51204,30911
51573.2,30911
51578,30960
51592.3,31007.2
51615.5,31050.6
51646.8,31088.7
51684.8,31119.9
51728.3,31143.1
51775.4,31157.4
51824.4,31162.2
51987.5,31161
52050,31098.5
52050,30769.1
52150,30769.1
52150,31098.5
52212.5,31161
52375.6,31162.2
52424.6,31157.4
52471.7,31143.1
52500,31128
52528.3,31143.1
52575.4,31157.4
52624.4,31162.2
52787.5,31161
52850,31098.5
52850,30769.1
52950,30769.1
52950,31098.5
53012.5,31161
53175.6,31162.2
53224.6,31157.4
53271.7,31143.1
53315.2,31119.9
53353.2,31088.7
53384.5,31050.6
53407.7,31007.2
53422,30960
53426.8,30911
53425.6,30831.6
53363.1,30769.1
52950,30769.1
52850,30769.1
52150,30769.1
52050,30769.1
51636.9,30769.1
51574.4,30831.6
51573.2,30911
51204,30911
51204,30427.8
51594.1,30427.8
51592.3,30431
51578,30478.2
51573.2,30527.2
51574.4,30606.6
51636.9,30669.1
52050,30669.1
52050,30661.2
52150,30661.2
52150,30669.1
52850,30669.1
52850,30661.2
52950,30661.2
52950,30669.1
53363.1,30669.1
53425.6,30606.6
53426.8,30527.2
53422,30478.2
53407.7,30431
53384.5,30387.6
53353.2,30349.5
53322.6,30324.4
53325.1,30322.4
53368.3,30269.7
53400.4,30209.7
53420.1,30144.6
53426.8,30076.9
53426.8,29884.9
53420.1,29817.2
53400.4,29752.1
53377.8,29709.8
53746,29709.8
53746,29952
53750.9,30001
53765.2,30048.1
53788.4,30091.5
53795.3,30100
53788.4,30108.5
53765.2,30151.9
53750.9,30199
53746,30248
53747.2,30824.5
53809.7,30887
54400,30887
54400,30879.1
54500,30879.1
54500,30887
55090.3,30887
55152.8,30824.5
55154,30248
55149.1,30199
55134.8,30151.9
55111.6,30108.5
55104.7,30100
55111.6,30091.5
55134.8,30048.1
55149.1,30001
55154,29952
55154,28574
55149.1,28525
55134.8,28477.9
55111.6,28434.5
55080.4,28396.4
55042.3,28365.1
54998.9,28341.9
54951.8,28327.6
54902.8,28322.8
53997.2,28322.8
53948.2,28327.6
53901.1,28341.9
53857.7,28365.1
53819.6,28396.4
53788.4,28434.5
53765.2,28477.9
53750.9,28525
53746,28574
53746,28816.1
53405.5,28816.1
53405.5,27995.3
53400.7,27946.3
53386.4,27899.1
53363.2,27855.7
53338.8,27826
53746,27826
53750.9,27875
53765.2,27922.1
53788.4,27965.5
53819.6,28003.6
53857.7,28034.9
53901.1,28058.1
53948.2,28072.4
53997.2,28077.2
54337.5,28076
54400,28013.5
54400,27187
54500,27187
54500,28013.5
54562.5,28076
54902.8,28077.2
54951.8,28072.4
54998.9,28058.1
55042.3,28034.9
55080.4,28003.6
55111.6,27965.5
55134.8,27922.1
55149.1,27875
55154,27826
55152.8,27249.5
55090.3,27187
54500,27187
54400,27187
53809.7,27187
53747.2,27249.5
53746,27826
53338.8,27826
53332,27817.6
53293.9,27786.4
53250.5,27763.2
53203.3,27748.9
53154.3,27744.1
52445.7,27744.1
52396.7,27748.9
52349.5,27763.2
52306.1,27786.4
52288.2,27801.1
52279.3,27792.2
52269.6,27780.4
52222.5,27741.8
52168.8,27713.1
52110.6,27695.4
52100,27694.4
52100,27187
52194.5,27187
52194.5,27404.7
52199.3,27453.7
52213.6,27500.9
52236.8,27544.3
52268,27582.4
52306.1,27613.6
52349.5,27636.8
52396.7,27651.1
52445.7,27655.9
53154.3,27655.9
53203.3,27651.1
53250.5,27636.8
53293.9,27613.6
53332,27582.4
53363.2,27544.3
53386.4,27500.9
53400.7,27453.7
53405.5,27404.7
53405.5,26448
53746,26448
53747.2,27024.5
53809.7,27087
54400,27087
54400,26260.5
54500,26260.5
54500,27087
55090.3,27087
55152.8,27024.5
55154,26448
55149.1,26399
55134.8,26351.9
55111.6,26308.5
55080.4,26270.4
55042.3,26239.2
54998.9,26215.9
54951.8,26201.6
54902.8,26196.8
54562.5,26198
54500,26260.5
54400,26260.5
54337.5,26198
53997.2,26196.8
53948.2,26201.6
53901.1,26215.9
53857.7,26239.2
53819.6,26270.4
53788.4,26308.5
53765.2,26351.9
53750.9,26399
53746,26448
53405.5,26448
53405.5,26420.5
53400.7,26371.5
53386.4,26324.3
53363.2,26280.9
53332,26242.8
53293.9,26211.6
53250.5,26188.4
53203.3,26174.1
53154.3,26169.3
52445.7,26169.3
52396.7,26174.1
52349.5,26188.4
52306.1,26211.6
52268,26242.8
52236.8,26280.9
52230.2,26293.3
51132.1,26293.3
51110.7,26267.2
51072.6,26236
51029.2,26212.8
50982.1,26198.5
50933.1,26193.7
50066.9,26193.7
50017.9,26198.5
49970.8,26212.8
49927.4,26236
49889.3,26267.2
49867.9,26293.3
48831.7,26293.3
48809.7,26286.6
48749.2,26280.7
48718.1,26280.7
48713.2,26276.7
48635.6,26235.2
48551.4,26209.6
48463.8,26201
48376.2,26209.6
48291.9,26235.2
48214.3,26276.7
48209.4,26280.7
48178.3,26280.7
48117.8,26286.6
48059.6,26304.3
48006,26333
47959,26371.6
47920.4,26418.6
47891.7,26472.2
47874,26530.4
47868.1,26590.9
47868.1,26709.1
47874,26769.6
47891.7,26827.8
47920.4,26881.4
47935.6,26900
47920.4,26918.6
47891.7,26972.2
47874,27030.4
47868.1,27090.9
47868.1,27100.8
47030.7,27100.8
47030.7,27100
46968.2,27100
47030.7,27037.5
47031.9,27031.9
47027.1,26982.9
47012.8,26935.8
46993.7,26900
47012.8,26864.2
47027.1,26817.1
47031.9,26768.1
47030.7,26762.5
46968.2,26700
46486.2,26700
46486.2,27100
46494.1,27100
46494.1,27100.8
46378.3,27100.8
46378.3,27100
46386.2,27100
46386.2,26700
45904.2,26700
45841.7,26762.5
45840.5,26768.1
45845.3,26817.1
45859.6,26864.2
45878.8,26900
45859.6,26935.8
45845.3,26982.9
45842.9,27008.2
45797.4,26994.4
45729.6,26987.8
45370.4,26987.8
45302.6,26994.4
45237.5,27014.2
45177.5,27046.3
45124.9,27089.5
45081.7,27142.1
45049.6,27202.1
45029.9,27267.2
45023.2,27334.9
44750,27334.9
44750,26531.9
45840.5,26531.9
45841.7,26537.5
45904.2,26600
46386.2,26600
46386.2,26344.4
46486.2,26344.4
46486.2,26600
46968.2,26600
47030.7,26537.5
47031.9,26531.9
47027.1,26482.9
47012.8,26435.8
46989.6,26392.3
46958.3,26354.3
46920.3,26323
46876.8,26299.8
46829.7,26285.5
46780.7,26280.7
46548.7,26281.9
46486.2,26344.4
46386.2,26344.4
46323.7,26281.9
46091.7,26280.7
46042.7,26285.5
45995.6,26299.8
45952.2,26323
45914.1,26354.3
45882.9,26392.3
45859.6,26435.8
45845.3,26482.9
45840.5,26531.9
44750,26531.9
44750,26050
55900,26050
Z" /> 
</g>
</g> 
</svg>
